<svg width="100" height="100" viewBox="0 0 100 100" fill="none" xmlns="http://www.w3.org/2000/svg">
<rect width="100" height="100" fill="#24AEAE"/>
<path d="M48.808 63.252C47.032 63.252 45.376 62.88 43.84 62.136C42.328 61.368 41.056 60.372 40.024 59.148L42.112 56.34C43.24 57.42 44.356 58.248 45.46 58.824C46.588 59.4 47.704 59.688 48.808 59.688C49.984 59.688 51.04 59.484 51.976 59.076C52.936 58.644 53.68 58.044 54.208 57.276C54.736 56.508 55 55.608 55 54.576C55 53.64 54.736 52.8 54.208 52.056C53.68 51.312 52.96 50.724 52.048 50.292C51.16 49.86 50.176 49.644 49.096 49.644C48.28 49.644 47.524 49.716 46.828 49.86C46.156 50.004 45.52 50.184 44.92 50.4C44.32 50.616 43.72 50.868 43.12 51.156L41.068 48.492L42.544 37.8H57.088V41.4H44.992L45.64 40.716L44.452 48.708L43.66 47.664C43.948 47.424 44.416 47.196 45.064 46.98C45.736 46.74 46.492 46.548 47.332 46.404C48.172 46.236 48.988 46.152 49.78 46.152C51.436 46.152 52.936 46.5 54.28 47.196C55.648 47.892 56.74 48.864 57.556 50.112C58.372 51.336 58.78 52.776 58.78 54.432C58.78 56.088 58.336 57.588 57.448 58.932C56.56 60.252 55.36 61.308 53.848 62.1C52.36 62.868 50.68 63.252 48.808 63.252Z" fill="black"/>
<path d="M25.976 85V75.9H32.866V77.252H27.38V83.648H32.866V85H25.976ZM26.691 81.009V79.657H32.151V81.009H26.691ZM36.7208 85V78.175H38.0598V79.917L37.6568 79.982C37.8128 79.6613 38.0381 79.3537 38.3328 79.059C38.6275 78.7643 38.9741 78.5217 39.3728 78.331C39.7801 78.1317 40.2265 78.032 40.7118 78.032C41.3531 78.032 41.8905 78.1533 42.3238 78.396C42.7571 78.6387 43.0821 78.9767 43.2988 79.41C43.5241 79.8433 43.6368 80.346 43.6368 80.918V85H42.2978V81.1C42.2978 80.71 42.2111 80.3807 42.0378 80.112C41.8731 79.8347 41.6435 79.6267 41.3488 79.488C41.0628 79.3407 40.7291 79.267 40.3478 79.267C40.0185 79.267 39.7108 79.3277 39.4248 79.449C39.1475 79.5617 38.9048 79.7133 38.6968 79.904C38.4975 80.0947 38.3415 80.3027 38.2288 80.528C38.1161 80.7533 38.0598 80.9787 38.0598 81.204V85H37.3968C37.2061 85 37.0545 85 36.9418 85C36.8291 85 36.7555 85 36.7208 85ZM51.2322 85.13C50.4088 85.13 49.6722 84.9827 49.0222 84.688C48.3808 84.3847 47.8782 83.973 47.5142 83.453C47.1502 82.9243 46.9682 82.3263 46.9682 81.659C46.9682 81.0957 47.0765 80.593 47.2932 80.151C47.5098 79.709 47.8045 79.332 48.1772 79.02C48.5585 78.6993 49.0005 78.4523 49.5032 78.279C50.0145 78.1057 50.5518 78.019 51.1152 78.019C51.6438 78.019 52.1378 78.1013 52.5972 78.266C53.0565 78.4307 53.4595 78.6603 53.8062 78.955C54.1528 79.2497 54.4215 79.6007 54.6122 80.008C54.8028 80.4067 54.8938 80.8487 54.8852 81.334L54.8722 81.984H48.1252L47.8262 80.918H53.7152L53.5202 81.061V80.749C53.4768 80.4543 53.3382 80.1943 53.1042 79.969C52.8702 79.7437 52.5798 79.5703 52.2332 79.449C51.8865 79.319 51.5138 79.254 51.1152 79.254C50.5692 79.254 50.0838 79.3363 49.6592 79.501C49.2345 79.657 48.9008 79.904 48.6582 80.242C48.4155 80.58 48.2942 81.022 48.2942 81.568C48.2942 82.036 48.4285 82.4477 48.6972 82.803C48.9658 83.1497 49.3342 83.4183 49.8022 83.609C50.2788 83.7997 50.8292 83.895 51.4532 83.895C52.0252 83.895 52.5105 83.817 52.9092 83.661C53.3078 83.4963 53.6588 83.31 53.9622 83.102L54.5732 84.09C54.3305 84.2807 54.0272 84.454 53.6632 84.61C53.3078 84.766 52.9222 84.8917 52.5062 84.987C52.0902 85.0823 51.6655 85.13 51.2322 85.13ZM58.4425 85V78.175H59.7945V80.541L59.4955 80.294C59.6168 79.878 59.8205 79.501 60.1065 79.163C60.4012 78.8163 60.7348 78.5433 61.1075 78.344C61.4888 78.136 61.8832 78.032 62.2905 78.032C62.5505 78.032 62.7975 78.058 63.0315 78.11C63.2742 78.162 63.4692 78.2357 63.6165 78.331L63.2655 79.735C63.1008 79.6483 62.9058 79.579 62.6805 79.527C62.4552 79.475 62.2428 79.449 62.0435 79.449C61.7142 79.449 61.4108 79.5053 61.1335 79.618C60.8562 79.7307 60.6178 79.8867 60.4185 80.086C60.2192 80.2767 60.0632 80.4933 59.9505 80.736C59.8465 80.9787 59.7945 81.2257 59.7945 81.477V85H58.4425ZM69.7794 85.13C68.9734 85.13 68.2584 84.9783 67.6344 84.675C67.0104 84.3717 66.5207 83.9513 66.1654 83.414C65.8101 82.8767 65.6324 82.2657 65.6324 81.581C65.6324 80.8877 65.8101 80.2767 66.1654 79.748C66.5207 79.2107 67.0104 78.7903 67.6344 78.487C68.2584 78.1837 68.9734 78.032 69.7794 78.032C70.5767 78.032 71.2874 78.1837 71.9114 78.487C72.5354 78.7903 73.0251 79.2107 73.3804 79.748C73.7357 80.2767 73.9134 80.8877 73.9134 81.581C73.9134 82.2657 73.7357 82.8767 73.3804 83.414C73.0251 83.9513 72.5354 84.3717 71.9114 84.675C71.2874 84.9783 70.5767 85.13 69.7794 85.13ZM69.7794 83.908C70.2994 83.908 70.7717 83.8083 71.1964 83.609C71.6211 83.4097 71.9547 83.1367 72.1974 82.79C72.4487 82.4347 72.5657 82.0317 72.5484 81.581C72.5657 81.1217 72.4487 80.7187 72.1974 80.372C71.9547 80.0253 71.6211 79.7523 71.1964 79.553C70.7717 79.3537 70.2994 79.254 69.7794 79.254C69.2507 79.254 68.7741 79.3537 68.3494 79.553C67.9247 79.7523 67.5911 80.0297 67.3484 80.385C67.1057 80.7317 66.9887 81.1303 66.9974 81.581C66.9887 82.0317 67.1057 82.4347 67.3484 82.79C67.5911 83.1367 67.9247 83.4097 68.3494 83.609C68.7741 83.8083 69.2507 83.908 69.7794 83.908Z" fill="black"/>
</svg>
