<svg width="100" height="100" viewBox="0 0 100 100" fill="none" xmlns="http://www.w3.org/2000/svg">
<rect width="100" height="100" fill="#24AEAE"/>
<path d="M35.972 61.236V40.788L37.34 41.184L31.616 44.28L30.356 41.04L36.944 37.44H39.896V61.236H35.972ZM31.04 63V59.256H44.216V63H31.04ZM52.4426 63L51.2546 60.048L59.5706 52.092C60.1706 51.492 60.7826 50.88 61.4066 50.256C62.0546 49.632 62.6426 49.008 63.1706 48.384C63.6986 47.736 64.1186 47.1 64.4306 46.476C64.7666 45.852 64.9346 45.252 64.9346 44.676C64.9346 43.908 64.7666 43.26 64.4306 42.732C64.0946 42.18 63.6026 41.76 62.9546 41.472C62.3066 41.184 61.5146 41.04 60.5786 41.04C59.7386 41.04 58.8986 41.22 58.0586 41.58C57.2426 41.916 56.4626 42.432 55.7186 43.128C54.9986 43.824 54.3626 44.7 53.8106 45.756L50.9306 43.812C51.5546 42.54 52.3466 41.424 53.3066 40.464C54.2906 39.504 55.4306 38.76 56.7266 38.232C58.0226 37.704 59.4626 37.44 61.0466 37.44C62.6546 37.44 64.0466 37.74 65.2226 38.34C66.3986 38.916 67.3106 39.72 67.9586 40.752C68.6066 41.76 68.9306 42.936 68.9306 44.28C68.9306 45.048 68.7986 45.804 68.5346 46.548C68.2946 47.268 67.9346 47.976 67.4546 48.672C66.9986 49.368 66.4706 50.064 65.8706 50.76C65.2946 51.432 64.6706 52.104 63.9986 52.776C63.3266 53.448 62.6426 54.12 61.9466 54.792L55.8986 60.66L55.2866 59.256H69.7226V63H52.4426Z" fill="black"/>
<path d="M5.976 85V75.9H10.201C10.9637 75.9 11.644 76.017 12.242 76.251C12.84 76.485 13.3427 76.81 13.75 77.226C14.166 77.642 14.478 78.123 14.686 78.669C14.9027 79.215 15.011 79.8087 15.011 80.45C15.011 81.0913 14.9027 81.6893 14.686 82.244C14.478 82.7987 14.166 83.284 13.75 83.7C13.3427 84.1073 12.84 84.428 12.242 84.662C11.644 84.8873 10.9637 85 10.201 85H5.976ZM7.38 83.791L7.341 83.648H10.136C10.7167 83.648 11.2193 83.57 11.644 83.414C12.0687 83.2493 12.4197 83.024 12.697 82.738C12.9743 82.452 13.1823 82.114 13.321 81.724C13.4597 81.334 13.529 80.9093 13.529 80.45C13.529 79.9907 13.4597 79.5703 13.321 79.189C13.1823 78.799 12.9743 78.461 12.697 78.175C12.4197 77.8803 12.0687 77.655 11.644 77.499C11.2193 77.3343 10.7167 77.252 10.136 77.252H7.302L7.38 77.135V83.791ZM18.5378 85V78.175H19.8768V85H18.5378ZM19.1878 76.589C18.9018 76.589 18.6808 76.5153 18.5248 76.368C18.3688 76.2207 18.2908 76.0127 18.2908 75.744C18.2908 75.4927 18.3688 75.289 18.5248 75.133C18.6894 74.977 18.9104 74.899 19.1878 74.899C19.4738 74.899 19.6948 74.9727 19.8508 75.12C20.0068 75.2673 20.0848 75.4753 20.0848 75.744C20.0848 75.9953 20.0024 76.199 19.8378 76.355C19.6818 76.511 19.4651 76.589 19.1878 76.589ZM27.2391 85.13C26.5025 85.13 25.8395 84.974 25.2501 84.662C24.6695 84.35 24.2058 83.9253 23.8591 83.388C23.5211 82.8507 23.3521 82.2483 23.3521 81.581C23.3521 80.905 23.5211 80.3027 23.8591 79.774C24.2058 79.2367 24.6695 78.812 25.2501 78.5C25.8395 78.188 26.5025 78.032 27.2391 78.032C27.9671 78.032 28.6388 78.1533 29.2541 78.396C29.8781 78.63 30.3635 78.955 30.7101 79.371L29.9561 80.398C29.7568 80.1813 29.5055 79.9863 29.2021 79.813C28.9075 79.6397 28.5955 79.501 28.2661 79.397C27.9368 79.293 27.6118 79.241 27.2911 79.241C26.7885 79.241 26.3421 79.345 25.9521 79.553C25.5621 79.7523 25.2545 80.0297 25.0291 80.385C24.8125 80.7317 24.7041 81.1303 24.7041 81.581C24.7041 82.0317 24.8211 82.4347 25.0551 82.79C25.2891 83.1367 25.6011 83.414 25.9911 83.622C26.3898 83.8213 26.8275 83.921 27.3041 83.921C27.6855 83.921 28.0365 83.8777 28.3571 83.791C28.6778 83.6957 28.9725 83.5743 29.2411 83.427C29.5098 83.271 29.7525 83.1063 29.9691 82.933L30.7101 83.934C30.2941 84.2633 29.7915 84.545 29.2021 84.779C28.6215 85.013 27.9671 85.13 27.2391 85.13ZM34.1403 85V78.175H35.4793V85H34.1403ZM34.7903 76.589C34.5043 76.589 34.2833 76.5153 34.1273 76.368C33.9713 76.2207 33.8933 76.0127 33.8933 75.744C33.8933 75.4927 33.9713 75.289 34.1273 75.133C34.292 74.977 34.513 74.899 34.7903 74.899C35.0763 74.899 35.2973 74.9727 35.4533 75.12C35.6093 75.2673 35.6873 75.4753 35.6873 75.744C35.6873 75.9953 35.605 76.199 35.4403 76.355C35.2843 76.511 35.0676 76.589 34.7903 76.589ZM43.1277 85.13C42.3043 85.13 41.5677 84.9827 40.9177 84.688C40.2763 84.3847 39.7737 83.973 39.4097 83.453C39.0457 82.9243 38.8637 82.3263 38.8637 81.659C38.8637 81.0957 38.972 80.593 39.1887 80.151C39.4053 79.709 39.7 79.332 40.0727 79.02C40.454 78.6993 40.896 78.4523 41.3987 78.279C41.91 78.1057 42.4473 78.019 43.0107 78.019C43.5393 78.019 44.0333 78.1013 44.4927 78.266C44.952 78.4307 45.355 78.6603 45.7017 78.955C46.0483 79.2497 46.317 79.6007 46.5077 80.008C46.6983 80.4067 46.7893 80.8487 46.7807 81.334L46.7677 81.984H40.0207L39.7217 80.918H45.6107L45.4157 81.061V80.749C45.3723 80.4543 45.2337 80.1943 44.9997 79.969C44.7657 79.7437 44.4753 79.5703 44.1287 79.449C43.782 79.319 43.4093 79.254 43.0107 79.254C42.4647 79.254 41.9793 79.3363 41.5547 79.501C41.13 79.657 40.7963 79.904 40.5537 80.242C40.311 80.58 40.1897 81.022 40.1897 81.568C40.1897 82.036 40.324 82.4477 40.5927 82.803C40.8613 83.1497 41.2297 83.4183 41.6977 83.609C42.1743 83.7997 42.7247 83.895 43.3487 83.895C43.9207 83.895 44.406 83.817 44.8047 83.661C45.2033 83.4963 45.5543 83.31 45.8577 83.102L46.4687 84.09C46.226 84.2807 45.9227 84.454 45.5587 84.61C45.2033 84.766 44.8177 84.8917 44.4017 84.987C43.9857 85.0823 43.561 85.13 43.1277 85.13ZM50.156 85V78.175H51.508V79.969L51.092 79.956C51.17 79.748 51.3 79.5357 51.482 79.319C51.664 79.0937 51.8937 78.89 52.171 78.708C52.457 78.5173 52.7777 78.3613 53.133 78.24C53.497 78.1187 53.887 78.058 54.303 78.058C54.7537 78.058 55.1567 78.1317 55.512 78.279C55.876 78.4263 56.1707 78.6473 56.396 78.942C56.63 79.2367 56.773 79.6093 56.825 80.06L56.448 79.982L56.539 79.761C56.643 79.5877 56.7947 79.4013 56.994 79.202C57.202 79.0027 57.4403 78.8207 57.709 78.656C57.9863 78.4827 58.2897 78.3397 58.619 78.227C58.9483 78.1143 59.2907 78.058 59.646 78.058C60.3133 78.058 60.842 78.1837 61.232 78.435C61.6307 78.6777 61.9167 79.02 62.09 79.462C62.272 79.904 62.363 80.411 62.363 80.983V85H61.011V81.152C61.011 80.762 60.9547 80.4283 60.842 80.151C60.7293 79.8737 60.5473 79.6613 60.296 79.514C60.0533 79.3667 59.737 79.293 59.347 79.293C59.009 79.293 58.6927 79.3493 58.398 79.462C58.1033 79.566 57.8433 79.7177 57.618 79.917C57.3927 80.1077 57.2193 80.333 57.098 80.593C56.9767 80.8443 56.916 81.1173 56.916 81.412V85H55.564V81.126C55.564 80.7533 55.499 80.4327 55.369 80.164C55.239 79.8867 55.0397 79.6743 54.771 79.527C54.5023 79.371 54.1557 79.293 53.731 79.293C53.4103 79.293 53.1157 79.3537 52.847 79.475C52.5783 79.5877 52.34 79.7393 52.132 79.93C51.9327 80.1207 51.7767 80.3287 51.664 80.554C51.56 80.7793 51.508 81.0047 51.508 81.23V85H50.156ZM70.5158 85.13C70.1172 85.13 69.7358 85.0737 69.3718 84.961C69.0165 84.8483 68.6958 84.7053 68.4098 84.532C68.1238 84.3587 67.8855 84.1723 67.6948 83.973C67.5128 83.765 67.3958 83.5743 67.3438 83.401L67.8508 83.297V84.961H66.5118V75.38H67.8508V79.735L67.4738 79.696C67.5258 79.514 67.6385 79.3277 67.8118 79.137C67.9938 78.9463 68.2235 78.7687 68.5008 78.604C68.7782 78.4307 69.0902 78.292 69.4368 78.188C69.7922 78.084 70.1648 78.032 70.5548 78.032C71.2655 78.032 71.9025 78.1837 72.4658 78.487C73.0292 78.7903 73.4798 79.2063 73.8178 79.735C74.1558 80.2637 74.3248 80.8747 74.3248 81.568C74.3248 82.2527 74.1602 82.8637 73.8308 83.401C73.5015 83.9383 73.0508 84.363 72.4788 84.675C71.9068 84.9783 71.2525 85.13 70.5158 85.13ZM70.3728 83.895C70.8928 83.895 71.3478 83.7953 71.7378 83.596C72.1365 83.388 72.4485 83.1107 72.6738 82.764C72.9078 82.4087 73.0248 82.01 73.0248 81.568C73.0248 81.126 72.9122 80.7317 72.6868 80.385C72.4615 80.0383 72.1495 79.7653 71.7508 79.566C71.3522 79.3667 70.8928 79.267 70.3728 79.267C69.8528 79.267 69.3892 79.3667 68.9818 79.566C68.5832 79.7653 68.2668 80.0383 68.0328 80.385C67.8075 80.7317 67.6948 81.126 67.6948 81.568C67.6948 82.01 67.8075 82.4087 68.0328 82.764C68.2668 83.1107 68.5832 83.388 68.9818 83.596C69.3892 83.7953 69.8528 83.895 70.3728 83.895ZM77.7726 85V78.175H79.1246V80.541L78.8256 80.294C78.9469 79.878 79.1506 79.501 79.4366 79.163C79.7312 78.8163 80.0649 78.5433 80.4376 78.344C80.8189 78.136 81.2132 78.032 81.6206 78.032C81.8806 78.032 82.1276 78.058 82.3616 78.11C82.6042 78.162 82.7992 78.2357 82.9466 78.331L82.5956 79.735C82.4309 79.6483 82.2359 79.579 82.0106 79.527C81.7852 79.475 81.5729 79.449 81.3736 79.449C81.0442 79.449 80.7409 79.5053 80.4636 79.618C80.1862 79.7307 79.9479 79.8867 79.7486 80.086C79.5492 80.2767 79.3932 80.4933 79.2806 80.736C79.1766 80.9787 79.1246 81.2257 79.1246 81.477V85H77.7726ZM89.1355 85.13C88.3121 85.13 87.5755 84.9827 86.9255 84.688C86.2841 84.3847 85.7815 83.973 85.4175 83.453C85.0535 82.9243 84.8715 82.3263 84.8715 81.659C84.8715 81.0957 84.9798 80.593 85.1965 80.151C85.4131 79.709 85.7078 79.332 86.0805 79.02C86.4618 78.6993 86.9038 78.4523 87.4065 78.279C87.9178 78.1057 88.4551 78.019 89.0185 78.019C89.5471 78.019 90.0411 78.1013 90.5005 78.266C90.9598 78.4307 91.3628 78.6603 91.7095 78.955C92.0561 79.2497 92.3248 79.6007 92.5155 80.008C92.7061 80.4067 92.7971 80.8487 92.7885 81.334L92.7755 81.984H86.0285L85.7295 80.918H91.6185L91.4235 81.061V80.749C91.3801 80.4543 91.2415 80.1943 91.0075 79.969C90.7735 79.7437 90.4831 79.5703 90.1365 79.449C89.7898 79.319 89.4171 79.254 89.0185 79.254C88.4725 79.254 87.9871 79.3363 87.5625 79.501C87.1378 79.657 86.8041 79.904 86.5615 80.242C86.3188 80.58 86.1975 81.022 86.1975 81.568C86.1975 82.036 86.3318 82.4477 86.6005 82.803C86.8691 83.1497 87.2375 83.4183 87.7055 83.609C88.1821 83.7997 88.7325 83.895 89.3565 83.895C89.9285 83.895 90.4138 83.817 90.8125 83.661C91.2111 83.4963 91.5621 83.31 91.8655 83.102L92.4765 84.09C92.2338 84.2807 91.9305 84.454 91.5665 84.61C91.2111 84.766 90.8255 84.8917 90.4095 84.987C89.9935 85.0823 89.5688 85.13 89.1355 85.13Z" fill="black"/>
</svg>
