<svg width="901" height="295" viewBox="0 0 901 295" fill="none" xmlns="http://www.w3.org/2000/svg">
<path d="M102.96 96H92.592V28.8H102.96V63.936L118.512 50.976L144.624 28.8H159.312L126.672 56.064L158.64 96H145.2L118.8 62.688L102.96 75.936V96ZM250.061 62.4C250.061 67.264 249.133 71.808 247.277 76.032C245.421 80.192 242.797 83.84 239.405 86.976C236.013 90.112 232.013 92.576 227.405 94.368C222.797 96.096 217.709 96.96 212.141 96.96C206.637 96.96 201.549 96.096 196.877 94.368C192.269 92.576 188.269 90.112 184.877 86.976C181.549 83.84 178.957 80.192 177.101 76.032C175.245 71.808 174.317 67.264 174.317 62.4C174.317 57.536 175.245 53.024 177.101 48.864C178.957 44.64 181.549 40.96 184.877 37.824C188.269 34.688 192.269 32.256 196.877 30.528C201.549 28.736 206.637 27.84 212.141 27.84C217.709 27.84 222.797 28.736 227.405 30.528C232.013 32.256 236.013 34.688 239.405 37.824C242.797 40.96 245.421 44.64 247.277 48.864C249.133 53.024 250.061 57.536 250.061 62.4ZM239.501 62.4C239.501 57.728 238.317 53.568 235.949 49.92C233.645 46.208 230.413 43.296 226.253 41.184C222.157 39.008 217.453 37.92 212.141 37.92C206.765 37.92 202.029 39.008 197.933 41.184C193.837 43.296 190.637 46.208 188.333 49.92C186.029 53.568 184.877 57.728 184.877 62.4C184.877 67.072 186.029 71.264 188.333 74.976C190.637 78.624 193.837 81.536 197.933 83.712C202.029 85.824 206.765 86.88 212.141 86.88C217.453 86.88 222.157 85.824 226.253 83.712C230.413 81.536 233.645 78.592 235.949 74.88C238.317 71.168 239.501 67.008 239.501 62.4ZM330.922 28.8H341.29V96H331.21L282.826 43.68C283.21 47.776 283.594 51.84 283.978 55.872C284.362 59.904 284.554 63.968 284.554 68.064V96H274.186V28.8H284.074L332.554 82.464C332.106 79.264 331.754 75.872 331.498 72.288C331.306 68.64 331.146 64.992 331.018 61.344C330.954 57.632 330.922 54.144 330.922 50.88V28.8ZM94.32 195.456C97.712 199.296 101.264 202.304 104.976 204.48C108.688 206.592 113.264 207.648 118.704 207.648C121.584 207.648 124.368 207.264 127.056 206.496C129.744 205.728 131.952 204.608 133.68 203.136C135.408 201.6 136.272 199.68 136.272 197.376C136.272 194.176 134.512 191.904 130.992 190.56C127.536 189.216 122.672 188.096 116.4 187.2C108.592 186.048 102.384 183.936 97.776 180.864C93.232 177.792 90.96 173.28 90.96 167.328C90.96 163.296 92.176 159.84 94.608 156.96C97.104 154.016 100.432 151.776 104.592 150.24C108.752 148.64 113.36 147.84 118.416 147.84C124.688 147.84 130.096 148.864 134.64 150.912C139.184 152.96 142.8 155.872 145.488 159.648L138.384 167.136C136.144 164.192 133.328 161.792 129.936 159.936C126.544 158.08 122.608 157.152 118.128 157.152C113.52 157.152 109.648 157.984 106.512 159.648C103.44 161.248 101.904 163.52 101.904 166.464C101.904 168.768 102.64 170.624 104.112 172.032C105.648 173.376 107.76 174.464 110.448 175.296C113.2 176.064 116.4 176.704 120.048 177.216C123.568 177.728 126.928 178.4 130.128 179.232C133.392 180 136.304 181.088 138.864 182.496C141.424 183.84 143.44 185.568 144.912 187.68C146.448 189.792 147.216 192.416 147.216 195.552C147.216 199.904 146.032 203.68 143.664 206.88C141.296 210.08 137.936 212.576 133.584 214.368C129.232 216.096 124.112 216.96 118.224 216.96C111.888 216.96 106.16 215.936 101.04 213.888C95.92 211.84 91.44 208.512 87.6 203.904L94.32 195.456ZM242.279 182.4C242.279 187.264 241.351 191.808 239.495 196.032C237.639 200.192 235.015 203.84 231.623 206.976C228.231 210.112 224.231 212.576 219.623 214.368C215.015 216.096 209.927 216.96 204.359 216.96C198.855 216.96 193.767 216.096 189.095 214.368C184.487 212.576 180.487 210.112 177.095 206.976C173.767 203.84 171.175 200.192 169.319 196.032C167.463 191.808 166.535 187.264 166.535 182.4C166.535 177.536 167.463 173.024 169.319 168.864C171.175 164.64 173.767 160.96 177.095 157.824C180.487 154.688 184.487 152.256 189.095 150.528C193.767 148.736 198.855 147.84 204.359 147.84C209.927 147.84 215.015 148.736 219.623 150.528C224.231 152.256 228.231 154.688 231.623 157.824C235.015 160.96 237.639 164.64 239.495 168.864C241.351 173.024 242.279 177.536 242.279 182.4ZM231.719 182.4C231.719 177.728 230.535 173.568 228.167 169.92C225.863 166.208 222.631 163.296 218.471 161.184C214.375 159.008 209.671 157.92 204.359 157.92C198.983 157.92 194.247 159.008 190.151 161.184C186.055 163.296 182.855 166.208 180.551 169.92C178.247 173.568 177.095 177.728 177.095 182.4C177.095 187.072 178.247 191.264 180.551 194.976C182.855 198.624 186.055 201.536 190.151 203.712C194.247 205.824 198.983 206.88 204.359 206.88C209.671 206.88 214.375 205.824 218.471 203.712C222.631 201.536 225.863 198.592 228.167 194.88C230.535 191.168 231.719 187.008 231.719 182.4ZM316.805 206.016V216H266.405V148.8H276.773V206.016H316.805ZM402.005 148.704V186.144C402.005 191.968 400.693 197.184 398.069 201.792C395.445 206.4 391.765 210.016 387.029 212.64C382.357 215.264 376.885 216.576 370.613 216.576C364.405 216.576 358.933 215.264 354.197 212.64C349.525 210.016 345.845 206.4 343.157 201.792C340.533 197.184 339.221 191.968 339.221 186.144V148.704H349.589V185.568C349.589 189.664 350.549 193.28 352.469 196.416C354.389 199.552 356.917 202.016 360.053 203.808C363.253 205.6 366.773 206.496 370.613 206.496C374.709 206.496 378.357 205.6 381.557 203.808C384.821 202.016 387.381 199.552 389.237 196.416C391.157 193.28 392.117 189.664 392.117 185.568V148.704H402.005ZM445.932 216V158.784H422.892V148.8H480.012V158.784H456.3V216H445.932ZM542.222 216H501.614V206.016H516.686V158.784H501.614V148.8H542.222V158.784H527.054V206.016H542.222V216ZM640.248 182.4C640.248 187.264 639.32 191.808 637.464 196.032C635.608 200.192 632.984 203.84 629.592 206.976C626.2 210.112 622.2 212.576 617.592 214.368C612.984 216.096 607.896 216.96 602.328 216.96C596.824 216.96 591.736 216.096 587.064 214.368C582.456 212.576 578.456 210.112 575.064 206.976C571.736 203.84 569.144 200.192 567.288 196.032C565.432 191.808 564.504 187.264 564.504 182.4C564.504 177.536 565.432 173.024 567.288 168.864C569.144 164.64 571.736 160.96 575.064 157.824C578.456 154.688 582.456 152.256 587.064 150.528C591.736 148.736 596.824 147.84 602.328 147.84C607.896 147.84 612.984 148.736 617.592 150.528C622.2 152.256 626.2 154.688 629.592 157.824C632.984 160.96 635.608 164.64 637.464 168.864C639.32 173.024 640.248 177.536 640.248 182.4ZM629.688 182.4C629.688 177.728 628.504 173.568 626.136 169.92C623.832 166.208 620.6 163.296 616.44 161.184C612.344 159.008 607.64 157.92 602.328 157.92C596.952 157.92 592.216 159.008 588.12 161.184C584.024 163.296 580.824 166.208 578.52 169.92C576.216 173.568 575.064 177.728 575.064 182.4C575.064 187.072 576.216 191.264 578.52 194.976C580.824 198.624 584.024 201.536 588.12 203.712C592.216 205.824 596.952 206.88 602.328 206.88C607.64 206.88 612.344 205.824 616.44 203.712C620.6 201.536 623.832 198.592 626.136 194.88C628.504 191.168 629.688 187.008 629.688 182.4ZM721.109 148.8H731.477V216H721.397L673.013 163.68C673.397 167.776 673.781 171.84 674.165 175.872C674.549 179.904 674.741 183.968 674.741 188.064V216H664.373V148.8H674.261L722.741 202.464C722.293 199.264 721.941 195.872 721.685 192.288C721.493 188.64 721.333 184.992 721.205 181.344C721.141 177.632 721.109 174.144 721.109 170.88V148.8ZM762.383 195.456C765.775 199.296 769.327 202.304 773.039 204.48C776.751 206.592 781.327 207.648 786.767 207.648C789.647 207.648 792.431 207.264 795.119 206.496C797.807 205.728 800.015 204.608 801.743 203.136C803.471 201.6 804.335 199.68 804.335 197.376C804.335 194.176 802.575 191.904 799.055 190.56C795.599 189.216 790.735 188.096 784.463 187.2C776.655 186.048 770.447 183.936 765.839 180.864C761.295 177.792 759.023 173.28 759.023 167.328C759.023 163.296 760.239 159.84 762.671 156.96C765.167 154.016 768.495 151.776 772.655 150.24C776.815 148.64 781.423 147.84 786.479 147.84C792.751 147.84 798.159 148.864 802.703 150.912C807.247 152.96 810.863 155.872 813.551 159.648L806.447 167.136C804.207 164.192 801.391 161.792 797.999 159.936C794.607 158.08 790.671 157.152 786.191 157.152C781.583 157.152 777.711 157.984 774.575 159.648C771.503 161.248 769.967 163.52 769.967 166.464C769.967 168.768 770.703 170.624 772.175 172.032C773.711 173.376 775.823 174.464 778.511 175.296C781.263 176.064 784.463 176.704 788.111 177.216C791.631 177.728 794.991 178.4 798.191 179.232C801.455 180 804.367 181.088 806.927 182.496C809.487 183.84 811.503 185.568 812.975 187.68C814.511 189.792 815.279 192.416 815.279 195.552C815.279 199.904 814.095 203.68 811.727 206.88C809.359 210.08 805.999 212.576 801.647 214.368C797.295 216.096 792.175 216.96 786.287 216.96C779.951 216.96 774.223 215.936 769.103 213.888C763.983 211.84 759.503 208.512 755.663 203.904L762.383 195.456Z" fill="#3A3A3A"/>
<path d="M14.592 28.8H65.472V38.784H24.96V56.544H60.192V66.528H24.96V86.016H65.472V96H14.592V28.8Z" fill="#24AEAE"/>
</svg>
