<svg width="907" height="1279" viewBox="0 0 907 1279" fill="none" xmlns="http://www.w3.org/2000/svg">
<path d="M424.5 0.599981C240.6 12.5 94.9 107 33.2 254.5C18.1 290.5 8.09995 329.5 2.89995 373.1C-0.100049 397.5 -0.300049 441.7 2.39995 464.5C12.2 548 42.1 638.1 96.6 748C157 870 240.8 1001.9 350.6 1148C382.5 1190.5 451.7 1278.7 453.2 1278.9C454.6 1279.1 520.8 1195.1 555.3 1149.2C795.9 829.4 918.6 565.8 906.1 395.5C898.1 286.4 859.1 198.4 787.9 128.3C716.2 57.7 619.1 14.5 505 2.39998C491.2 0.999981 437.6 -0.200019 424.5 0.599981Z" fill="#24AEAE"/>
</svg>
