<svg width="409" height="534" viewBox="0 0 409 534" fill="none" xmlns="http://www.w3.org/2000/svg">
<path d="M127.718 1.35679C126.218 1.89843 116.843 7.0232 106.885 12.7729C96.9273 18.5227 85.0945 25.314 80.553 27.8556C71.72 32.8554 69.3035 34.8136 67.5119 38.4801C66.2203 41.105 65.8036 44.9382 66.4703 47.4797C67.1786 50.1463 89.0109 87.353 121.343 141.017C140.259 172.433 139.009 170.433 141.134 172.516C143.467 174.807 145.758 176.057 148.967 176.891C153.633 178.099 153.8 178.016 176.007 165.224C186.923 158.975 198.923 152.1 202.714 149.934C210.256 145.684 212.422 143.934 214.089 140.892C216.297 136.851 216.922 132.393 215.922 128.518C215.547 127.06 204.214 107.977 179.215 66.6455C159.341 33.772 142.592 6.23157 142.05 5.52327C140.759 3.81501 138.05 2.23175 134.717 1.19013C131.426 0.190176 131.009 0.231841 127.718 1.35679Z" fill="#24AEAE"/>
<path d="M49.9293 57.4793C26.3053 64.2706 11.0143 81.8949 4.18132 110.394C2.4314 117.643 0.973129 129.601 0.348157 141.642C0.0148387 148.267 1.68143 168.724 3.59801 181.64C15.8475 263.887 64.512 367.257 125.176 439.754C140.8 458.42 158.883 476.586 175.007 489.793C199.673 510.043 224.588 523.625 247.92 529.542C256.087 531.625 270.336 533.708 276.503 533.708C279.502 533.708 281.002 533.541 290.835 532.208C299.627 531 308.584 528.417 317.167 524.667C320.667 523.125 321.501 522.625 321.334 522C321.042 520.875 287.169 461.628 283.336 455.587C279.377 449.295 265.878 427.255 256.045 411.005C252.295 404.797 249.087 399.589 248.92 399.381C248.754 399.172 247.087 399.381 245.129 399.881C230.63 403.547 215.297 401.297 198.756 393.089C177.382 382.548 157.05 363.507 138.884 337.05C132.551 327.842 126.551 317.426 123.718 310.801C115.926 292.427 110.593 273.136 108.302 254.762C107.51 248.304 107.385 233.596 108.093 228.097C110.135 212.014 115.301 199.056 123.926 188.307L126.426 185.182L125.676 183.932C116.301 168.349 109.135 155.475 87.3026 114.977C67.6368 78.52 55.3874 56.6043 54.5541 56.396C54.3458 56.3127 52.2625 56.8126 49.9293 57.4793Z" fill="#24AEAE"/>
<path d="M320.625 338.883C319.834 339.217 316.834 340.8 313.959 342.467C311.084 344.133 299.335 350.925 287.793 357.508C276.294 364.132 266.211 370.007 265.461 370.59C263.253 372.299 261.128 375.673 260.378 378.798C259.211 383.548 259.503 384.298 268.794 400.714C297.71 451.753 331.916 510.542 333.875 512.584C334.5 513.209 336.208 514.334 337.708 515.084C340.166 516.292 340.749 516.417 344.374 516.417H348.332L353.541 513.417C386.831 494.377 402.33 485.419 403.497 484.585C405.205 483.377 407.33 480.044 408.288 477.211C409.121 474.627 409.246 469.419 408.538 467.211C408.246 466.336 404.038 458.878 399.164 450.587C394.289 442.337 383.039 423.13 374.165 407.88C333.25 337.675 335.375 341.05 330.458 339.175C327.75 338.175 323 338.009 320.625 338.883Z" fill="#24AEAE"/>
</svg>
