<svg width="1961" height="1679" viewBox="0 0 1961 1679" fill="none" xmlns="http://www.w3.org/2000/svg">
<path d="M441.5 1003.5C439.5 954 486.5 928 497.5 876.5C502.663 852.326 532.177 823.413 563.5 799.134C570.798 793.476 578.195 788.07 585.404 783.035C599.859 772.938 645.624 766.536 662.88 762.912C664.727 762.524 669.957 761.588 671.843 761.678L732.224 764.575C744.826 765.18 757.388 762.197 768.496 756.215C834.106 720.88 821.738 734.459 882 708.5C917.901 693.035 957.932 689.073 987.122 689.309C1007.09 689.47 1026.7 683.002 1044.14 673.275C1093.2 645.915 1133.32 665.681 1149 681.5C1205.8 562.3 1428 706.993 1532 794.24C1536.37 794.909 1540.56 795.742 1544.55 796.712C1568.75 802.59 1579.9 827.916 1576.76 852.619C1568.15 920.209 1552.14 1024.73 1532 1097.5C1510.98 1173.43 1328.56 1196.32 1199.35 1199.5C1176.09 1200.07 1154.56 1200.01 1136 1199.5H768.5C528.9 1199.5 450.667 1068.83 441.5 1003.5Z" fill="#FCFF69"/>
<path d="M1058 901.348C1043.19 896.216 1027.94 890.375 1012.34 883.742C998.723 877.956 983.676 876.173 969.25 879.44C961.72 881.146 953.774 882.977 945.5 884.92M1058 901.348C1051 876.565 1045.2 822.1 1078 802.5M1058 901.348C1123.37 924.008 1180 932.854 1219.5 935.092M1532 794.24C1536.37 794.909 1540.56 795.742 1544.55 796.712C1568.75 802.59 1579.9 827.916 1576.76 852.619C1568.15 920.209 1552.14 1024.73 1532 1097.5C1510.98 1173.43 1328.56 1196.31 1199.35 1199.5M1532 794.24C1474.23 785.4 1383.96 805.11 1281.66 914.797C1270.07 927.221 1254.62 935.82 1237.63 935.693C1232.08 935.651 1226.02 935.462 1219.5 935.092M1532 794.24C1428 706.993 1205.8 562.3 1149 681.5M1149 681.5C1092.2 800.7 1143.33 843.833 1176 850.5M1149 681.5C1133.32 665.681 1093.2 645.915 1044.14 673.275C1026.7 683.002 1007.09 689.47 987.122 689.309C957.932 689.073 917.901 693.035 882 708.5C821.738 734.459 834.106 720.88 768.496 756.215C757.388 762.197 744.826 765.18 732.224 764.575L671.843 761.678C669.957 761.588 664.727 762.524 662.88 762.912V762.912C645.624 766.536 599.859 772.938 585.404 783.035C578.195 788.07 570.798 793.476 563.5 799.134C532.177 823.413 502.663 852.326 497.5 876.5C486.5 928 439.5 954 441.5 1003.5C450.667 1068.83 528.9 1199.5 768.5 1199.5C1008.1 1199.5 1113.33 1199.5 1136 1199.5C1154.56 1200.01 1176.09 1200.07 1199.35 1199.5M650 981.5C659.903 973.542 677.465 964.884 699.845 956M945.5 884.92C958.333 852.114 979.3 778.7 960.5 747.5M945.5 884.92C869.003 902.884 764.389 930.378 699.845 956M699.845 956L683.301 952.374C666.107 948.606 651.044 938.316 641.28 923.67L634.5 913.5M1199.35 1199.5C1149.01 1169 1053.5 1104.12 1010.56 1052.5M991.5 1022.5C995.006 1031.64 1001.65 1041.79 1010.56 1052.5M1010.56 1052.5C987.876 1045 925.1 1034.5 855.5 1052.5M1219.5 935.092C1211.83 982.895 1213.1 1075.9 1279.5 1065.5C1345.9 1055.1 1441.5 1061.17 1481 1065.5" stroke="black" stroke-width="15"/>
<path d="M26.5001 758C30.1667 739.5 35.3001 696 26.5001 670C23.5527 661.292 19.708 648.42 16.322 633.5C7.0708 592.736 1.24398 536.684 26.5001 508.5C51.0271 481.129 63.682 441.465 68.1843 419.404C69.1862 414.495 70.3437 409.637 72.4035 405.07C85.2566 376.571 118.093 326.821 168.5 311C219.65 294.945 252.708 233.79 265.152 199.421C266.809 194.845 268.608 190.285 271.659 186.493C281.624 174.109 303.131 157.625 337.5 152.668C346.869 151.316 357.193 150.822 368.5 151.5C405.378 153.713 436.085 135.388 457.604 114.937C477.99 95.5623 504.914 81.4848 533.037 81.2587C570.018 80.9612 615.087 75.0698 650.716 56.4238C674.987 43.7214 703.417 35.5762 730.5 39.6976C759.802 44.1568 793.709 44.0282 815.5 29C845.736 8.14737 917.921 10.4455 963.117 15.5611C975.192 16.9278 986.854 21.7336 994.709 31.0061C1007.66 46.2893 1016.71 66.7952 994.5 78.5C977.87 87.2644 950.151 88.2324 923.968 86.2454C892.86 83.8845 861.908 98.5805 841.141 121.861C818.294 147.473 785.341 173.105 745 179.5C679.4 189.9 678.667 282.833 686.5 328C698.833 328.833 722.6 343.8 719 397C715.834 443.785 730.482 489.617 740.975 513.138C743.487 518.769 745.682 524.531 746.861 530.583C747.524 533.984 748.191 537.592 748.849 541.364C758.328 595.699 801.516 713.574 750.42 734.343C748.667 735.056 746.86 735.775 745 736.5C643.4 776.1 622.333 767.333 624.5 758C608.521 767.229 585.562 782.032 563.5 799.134C532.177 823.413 502.663 852.326 497.5 876.5C486.5 928 439.5 954 441.5 1003.5C442.79 1035.43 389.336 1006.01 346.826 976.462C328.997 964.07 306.363 959.944 284.71 958.35C245.593 955.472 184.322 936.472 114.5 876.5C18.1 793.7 15.6667 763 26.5001 758Z" fill="#FF5B5B"/>
<path d="M26.5001 758C30.1667 739.5 35.3001 696 26.5001 670C23.5527 661.292 19.708 648.42 16.322 633.5M26.5001 758C15.6667 763 18.1 793.7 114.5 876.5C184.322 936.472 245.593 955.472 284.71 958.35C306.363 959.944 328.997 964.07 346.826 976.462C389.336 1006.01 442.79 1035.43 441.5 1003.5C439.5 954 486.5 928 497.5 876.5C502.663 852.326 532.177 823.413 563.5 799.134M26.5001 758C130 867.5 185 853.5 267.5 853.5C316.975 853.5 324.271 776.703 318.364 709.462C315.301 674.592 335.355 640.064 370.152 643.871C458.347 653.518 569.105 718.983 624.5 758M686.5 328C678.667 282.833 679.4 189.9 745 179.5C785.341 173.105 818.294 147.473 841.141 121.861C861.908 98.5805 892.86 83.8845 923.968 86.2454C950.151 88.2324 977.87 87.2644 994.5 78.5C1016.71 66.7952 1007.66 46.2893 994.709 31.0061C986.854 21.7336 975.192 16.9278 963.117 15.5611C917.921 10.4455 845.736 8.14737 815.5 29C793.709 44.0282 759.802 44.1568 730.5 39.6976M686.5 328C698.833 328.833 722.6 343.8 719 397C715.834 443.785 730.482 489.617 740.975 513.138C743.487 518.769 745.682 524.531 746.861 530.583C747.524 533.984 748.191 537.592 748.849 541.364C758.328 595.699 801.516 713.574 750.42 734.343C748.666 735.056 746.86 735.775 745 736.5C643.4 776.1 622.333 767.333 624.5 758M686.5 328C666.333 321 620.2 314.7 597 345.5M624.5 758C616.791 731.939 608.892 691.959 607.106 648.5M624.5 758C483.5 662.5 304 610 286 670C271.6 718 165.667 715.667 114.5 708.5M624.5 758C608.521 767.229 585.562 782.032 563.5 799.134M656.5 470C614.681 515.835 604.529 585.79 607.106 648.5M607.106 648.5C535.116 637.801 417.143 595.736 450.642 508.5M473.5 470C462.688 483.708 455.239 496.529 450.642 508.5M563.5 799.134C514.333 799.589 407.8 794.1 375 768.5M450.642 508.5L406.366 492.989C386.574 486.055 371.738 470.005 361.708 451.587C336.4 405.112 287.456 363.016 222 436C213.003 446.032 204.799 454.975 197.332 463M16.322 633.5C7.0708 592.736 1.24398 536.684 26.5001 508.5C51.0271 481.129 63.682 441.465 68.1843 419.404C69.1862 414.495 70.3437 409.637 72.4035 405.07C85.2566 376.571 118.093 326.821 168.5 311C219.65 294.945 252.708 233.79 265.152 199.421C266.809 194.845 268.608 190.285 271.659 186.493C281.624 174.109 303.131 157.625 337.5 152.668M16.322 633.5C63.548 648.5 154.2 663.1 139 601.5C121.709 531.428 121.81 544.171 197.332 463M197.332 463C188.888 420.167 206.7 324 345.5 282M629.5 328C592.667 296.833 526.8 219.4 558 159M730.5 39.6976V39.6976C703.417 35.5762 674.987 43.7214 650.716 56.4238C615.087 75.0698 570.018 80.9612 533.037 81.2587C504.914 81.4848 477.99 95.5623 457.604 114.937C436.085 135.388 405.377 153.713 368.5 151.5C357.193 150.822 346.869 151.316 337.5 152.668M730.5 39.6976C726.667 82.7984 696.3 164.4 605.5 146M337.5 152.668C319.5 195.445 312.8 268.8 430 220C576.5 159 452.5 326 456.5 361.5" stroke="black" stroke-width="15"/>
<path d="M1058.75 666.364C1053.98 668.22 1049.11 670.506 1044.14 673.275C1026.7 683.002 1007.09 689.47 987.122 689.309C957.932 689.073 917.901 693.035 882 708.5C821.738 734.459 834.106 720.88 768.496 756.215C757.388 762.197 744.826 765.18 732.224 764.575L669 761.542C670.86 760.817 748.667 735.056 750.42 734.343C801.516 713.574 758.328 595.699 748.85 541.364C748.192 537.592 747.524 533.984 746.861 530.583C745.682 524.531 743.487 518.769 740.975 513.138C730.482 489.617 715.834 443.785 719 397C719.804 385.117 719.243 375.142 717.749 366.806C712.218 335.948 681.791 306.092 683.427 274.785C685.653 232.199 700.2 186.603 745 179.5C785.341 173.105 818.294 147.473 841.141 121.861C861.908 98.5805 892.86 83.8845 923.968 86.2454C950.151 88.2324 977.87 87.2644 994.5 78.5C997.364 76.9907 999.708 75.3351 1001.59 73.5633C1003.87 67.4635 1005.96 61.725 1007.83 56.4238C1029.39 32.1566 1093.2 -9.99014 1176 15.561C1206.6 25.0028 1231.35 30.3263 1250.9 33.0086C1284.13 37.5696 1323.88 50.3967 1344.72 76.6764L1345.58 77.757C1358.48 94.0195 1378.1 103.5 1398.86 103.5H1458.95C1473.28 103.5 1487.25 108.03 1498.86 116.442L1595.5 186.493L1638.25 218.747L1675.02 246.486C1678.99 249.486 1682.63 252.915 1685.86 256.709L1740.99 321.526C1744.55 325.705 1746.5 331.013 1746.5 336.5V344.88C1746.5 364.352 1738.15 382.889 1723.57 395.796L1708.43 409.204C1693.85 422.111 1685.5 440.648 1685.5 460.12V511.217C1685.5 541.098 1664.87 568.575 1646.52 592.159C1630.53 612.711 1615.42 644.576 1609.5 691.5C1599.3 772.392 1541.03 777.549 1505.66 768.503C1499.16 766.84 1493.31 763.42 1487.94 759.402C1482.66 755.456 1477.25 751.482 1471.72 747.5C1416.95 708.085 1350.55 668 1291.27 648.5C1268.77 641.095 1247.29 636.658 1227.86 636.353C1180.78 635.614 1102.62 649.271 1058.75 666.364Z" fill="#9CFF79"/>
<path d="M1007.83 56.4238C1008.81 64.8024 1005.46 72.7231 994.5 78.5C977.87 87.2644 950.151 88.2324 923.968 86.2454C892.86 83.8845 861.908 98.5805 841.141 121.861C818.294 147.473 785.341 173.105 745 179.5C700.2 186.603 685.653 232.199 683.427 274.785C681.791 306.092 712.218 335.948 717.749 366.806C719.243 375.142 719.804 385.117 719 397C715.834 443.785 730.482 489.617 740.975 513.138C743.487 518.769 745.682 524.531 746.861 530.583C747.524 533.984 748.192 537.592 748.85 541.364C758.328 595.699 801.516 713.574 750.42 734.343C748.667 735.056 670.86 760.817 669 761.542L732.224 764.575C744.826 765.18 757.388 762.197 768.496 756.215C834.106 720.88 821.738 734.459 882 708.5C917.901 693.035 957.932 689.073 987.122 689.309C1007.09 689.47 1026.7 683.002 1044.14 673.275C1049.11 670.506 1053.98 668.22 1058.75 666.364C1102.62 649.271 1180.78 635.614 1227.86 636.353C1247.29 636.658 1268.77 641.095 1291.27 648.5M1007.83 56.4238C1029.39 32.1566 1093.2 -9.99014 1176 15.561C1206.6 25.0028 1231.35 30.3263 1250.9 33.0086C1284.13 37.5696 1323.88 50.3967 1344.72 76.6764L1345.58 77.757C1358.48 94.0195 1378.1 103.5 1398.86 103.5H1458.95C1473.28 103.5 1487.25 108.03 1498.86 116.442L1595.5 186.493L1638.25 218.747M1007.83 56.4238C982.052 129.473 915.5 285.565 855.5 325.536M1471.72 747.5C1477.25 751.482 1482.66 755.456 1487.94 759.402C1493.31 763.42 1499.16 766.84 1505.66 768.503C1541.03 777.549 1599.3 772.392 1609.5 691.5C1615.42 644.576 1630.53 612.711 1646.52 592.159C1664.87 568.575 1685.5 541.098 1685.5 511.217V460.12C1685.5 440.648 1693.85 422.111 1708.43 409.204L1723.57 395.796C1738.15 382.889 1746.5 364.352 1746.5 344.88V336.5M1471.72 747.5C1478.31 715 1473.2 646.9 1400 634.5M1471.72 747.5C1416.95 708.085 1350.55 668 1291.27 648.5M1746.5 336.5V336.5C1746.5 331.013 1744.55 325.705 1740.99 321.526L1685.86 256.709C1682.63 252.915 1678.99 249.486 1675.02 246.486L1638.25 218.747M1746.5 336.5C1723.03 329.199 1687.55 331.234 1651.5 357.42M1532 622C1555.23 468.821 1603.86 392.028 1651.5 357.42M1651.5 357.42L1581.5 282M1638.25 218.747C1646.83 229.331 1645.7 248.4 1572.5 240C1533.71 235.549 1495.18 238.95 1463.5 244.744M1400 262C1412.69 256.907 1435.4 249.884 1463.5 244.744M1400 262C1376.67 219 1288.4 147.9 1122 207.5C955.6 267.1 1016.33 447.722 1067.5 530.583M1400 262L1372 299.25M1344 336.5L1372 299.25M1463.5 244.744L1516.5 301M1372 299.25L1396 358.125M1420 417L1396 358.125M1396 358.125C1354.71 369.571 1273.37 401.295 1207.73 451.587M1149 508.5C1165.4 487.476 1185.68 468.484 1207.73 451.587M1140.5 397L1207.73 451.587M855.5 325.536C795.5 365.507 848.167 508.833 882 575.5M855.5 325.536C866.245 345.21 945.5 405.07 963.117 530.583M1291.27 648.5C1325.75 604.317 1398.1 524.432 1444.35 513.138M1463.5 513.138C1457.88 511.288 1451.42 511.412 1444.35 513.138M1444.35 513.138C1465.23 492.092 1498.3 435.1 1463.5 375.5" stroke="black" stroke-width="15"/>
<path d="M1532.58 1101.88C1554.72 1021.91 1571.86 903.584 1579.67 838.079C1581.23 824.994 1575.44 811.838 1563.23 806.884C1562.61 806.715 1562.05 806.5 1561.6 806.237C1553.64 803.145 1544.54 800.59 1534.4 798.914C1533.21 798.717 1532.2 798.304 1531.28 797.532C1525.47 792.682 1532.53 776.453 1540.07 775.769C1570.67 772.989 1602.76 753.945 1610.08 695.884C1616 648.96 1631.11 617.096 1647.1 596.544C1665.45 572.959 1686.08 545.483 1686.08 515.602V464.504C1686.08 445.032 1694.43 426.495 1709.01 413.588L1724.15 400.18C1738.73 387.274 1747.08 368.736 1747.08 349.265V340.884C1781.58 375.792 1849.82 459.783 1863.51 531.533C1865.29 540.833 1867.9 550.009 1872.25 558.415C1939.91 688.929 2020.16 953.593 1856.69 1082.74C1848.26 1089.4 1837.94 1093.69 1827.2 1093.48C1808.24 1093.13 1790.59 1087 1786.67 1069.88C1782.25 1066.96 1764.5 1064.92 1725.39 1069.88C1708.04 1072.09 1686.47 1075.68 1660 1081.18C1645.33 1084.23 1629.15 1087.87 1611.34 1092.2C1610.5 1092.4 1609.69 1092.67 1608.9 1093.02L1548.05 1119.8C1541.71 1122.59 1530.73 1108.56 1532.58 1101.88Z" fill="#BA62FF"/>
<path d="M1747.08 332.384V340.884M1747.08 340.884V349.265C1747.08 368.736 1738.73 387.274 1724.15 400.18L1709.01 413.588C1694.43 426.495 1686.08 445.032 1686.08 464.504V515.602C1686.08 545.483 1665.45 572.959 1647.1 596.544C1631.11 617.096 1616 648.96 1610.08 695.884C1602.76 753.945 1570.67 772.989 1540.07 775.769C1532.53 776.453 1525.47 792.682 1531.28 797.532V797.532C1532.2 798.304 1533.21 798.717 1534.4 798.914C1545.24 800.705 1554.9 803.502 1563.23 806.884M1747.08 340.884C1781.58 375.792 1849.82 459.783 1863.51 531.533C1865.29 540.833 1867.9 550.009 1872.25 558.415C1939.91 688.929 2020.16 953.593 1856.69 1082.74C1848.26 1089.4 1837.94 1093.69 1827.2 1093.48C1808.24 1093.13 1790.59 1087 1786.67 1069.88M1876.5 738.728L1871 838.806M1871 838.806L1866.88 913.716C1865.99 929.955 1859.21 945.253 1848.32 957.333C1796.16 1015.2 1782.12 1049.98 1786.67 1069.88M1871 838.806C1864.12 809.527 1839.45 765.043 1788.5 748.596M1563.23 806.884V806.884C1575.44 811.838 1581.23 824.994 1579.67 838.079C1571.86 903.584 1554.72 1021.91 1532.58 1101.88V1101.88C1530.73 1108.56 1541.71 1122.59 1548.05 1119.8L1608.9 1093.02C1609.69 1092.67 1610.5 1092.4 1611.34 1092.2C1629.15 1087.87 1645.33 1084.23 1660 1081.18M1563.23 806.884C1553.02 804.131 1563.28 789.276 1686.08 751.884C1694.38 749.359 1702.35 747.368 1710 745.864M1710 745.864C1730.55 718.332 1766.75 646.592 1747.08 579.884M1710 745.864C1741.2 739.736 1767.16 741.706 1788.5 748.596M1788.5 748.596C1807.5 722.32 1839.8 651.792 1817 579.884M1786.67 1069.88C1782.25 1066.96 1764.5 1064.92 1725.39 1069.88M1725.39 1069.88L1737 878.884M1725.39 1069.88C1708.04 1072.09 1686.47 1075.68 1660 1081.18M1737 878.884L1799.5 838.806M1737 878.884C1724.05 857.012 1680.55 821.592 1610.08 854.884M1660 1081.18C1650.97 1059.13 1634.83 1004.11 1642.5 960.384" stroke="black" stroke-width="15"/>
<path d="M1391.49 1196.62H1259.46C1227.21 1196.62 1212.07 1219.57 1222.09 1250.22C1266.6 1386.37 1351.28 1412.22 1399.02 1406.43C1405.42 1405.66 1411.24 1402.62 1416.23 1398.54C1441.25 1378.05 1502.29 1380.55 1533.59 1372.41C1564.03 1364.5 1604.29 1341.99 1651.15 1296.74C1665.92 1282.48 1678.4 1270.83 1688.93 1261.38C1707.51 1244.71 1754.66 1184.1 1773.07 1167.24C1791.17 1150.67 1795.6 1125.89 1796.22 1104.24C1796.89 1081.04 1781.65 1063.01 1758.49 1064.57C1751.48 1065.04 1743.37 1065.82 1734.05 1067.01C1716.69 1069.21 1695.12 1072.8 1668.65 1078.31C1653.98 1081.36 1637.8 1085 1619.99 1089.32C1619.15 1089.52 1618.34 1089.8 1617.55 1090.14L1556.7 1116.93C1551.64 1119.15 1460.46 1168.53 1423.76 1188.43C1413.8 1193.83 1402.82 1196.62 1391.49 1196.62Z" fill="#FF8FF4" stroke="black" stroke-width="15"/>
<path d="M1163.58 1200H1072.28C1020.04 1200 987.591 1256.37 1017.43 1299.25C1044.5 1338.16 1071.51 1370.62 1085.58 1370.62C1110.75 1370.62 1216.25 1536.9 1272.53 1631.05C1277.49 1639.36 1284.02 1646.63 1292.31 1651.62C1333.85 1676.61 1392.77 1692.34 1368.5 1595.62C1345.82 1505.22 1258.74 1380.16 1233.69 1262.86C1226.46 1229.04 1198.15 1200.95 1163.58 1200Z" fill="#41D1FF" stroke="black" stroke-width="15"/>
</svg>
