<svg width="279" height="79" viewBox="0 0 279 79" fill="none" xmlns="http://www.w3.org/2000/svg">
<rect x="1" y="1" width="277" height="77" rx="15" stroke="#FF9900" stroke-width="2"/>
<path d="M57.7969 53.1406C57.5273 53.0469 56.9531 53 56.0742 53H48.9023C48.293 53 47.8066 52.9062 47.4434 52.7188C47.0801 52.5195 46.8984 52.1621 46.8984 51.6465C46.8984 51.2715 46.9863 50.9727 47.1621 50.75C47.6074 50.8672 48.0352 50.9258 48.4453 50.9258C48.8555 50.9258 49.1777 50.8848 49.4121 50.8027C49.6465 50.709 49.8516 50.5508 50.0273 50.3281C50.3789 49.8594 50.5547 49.0801 50.5547 47.9902V30.0078C50.5195 29.1875 50.25 28.666 49.7461 28.4434C49.5938 28.373 49.3828 28.3086 49.1133 28.25C48.8555 28.1914 48.5977 28.1328 48.3398 28.0742C48.0938 28.0039 47.8828 27.9219 47.707 27.8281C47.3555 27.6406 47.1797 27.3945 47.1797 27.0898C47.1797 26.5391 47.2734 26.1465 47.4609 25.9121C47.7305 26.0059 48.3105 26.0527 49.2012 26.0527H51.4863L57.6562 25.877L58.4121 25.8594C62.0215 25.8594 64.7227 26.5039 66.5156 27.793C68.3086 29.0703 69.2051 30.875 69.2051 33.207C69.2051 34.9531 68.6367 36.5586 67.5 38.0234C66.2344 39.6523 64.4883 40.7539 62.2617 41.3281C62.8711 41.75 63.5625 42.5234 64.3359 43.6484L66.1992 46.373C67.9453 48.916 69.3926 50.1875 70.541 50.1875C70.9746 50.1875 71.3027 50.1465 71.5254 50.0645L71.9648 49.8887C72.0586 49.8535 72.1641 49.8359 72.2812 49.8359C72.3984 49.8359 72.5215 49.9297 72.6504 50.1172C72.7793 50.293 72.8438 50.498 72.8438 50.7324C72.8438 50.9668 72.7441 51.248 72.5449 51.5762C72.3457 51.8926 72.0645 52.1797 71.7012 52.4375C70.8809 53.0352 69.9844 53.334 69.0117 53.334C68.0391 53.334 67.2363 53.1699 66.6035 52.8418C65.9824 52.5137 65.4082 52.0859 64.8809 51.5586C64.3652 51.0195 63.8906 50.4102 63.457 49.7305C63.0352 49.0508 62.6367 48.3535 62.2617 47.6387L61.2246 45.5469C60.4863 44.0234 59.8945 43.0449 59.4492 42.6113C59.0156 42.166 58.6172 41.9434 58.2539 41.9434H56.4785C56.1855 41.9434 56.0391 41.7324 56.0391 41.3105C56.0391 40.7246 56.2617 40.2676 56.707 39.9395C56.8594 39.834 57.3164 39.7754 58.0781 39.7637C58.8398 39.7402 59.6953 39.5762 60.6445 39.2715C61.6055 38.9668 62.3965 38.5508 63.0176 38.0234C64.2246 36.9805 64.8281 35.5156 64.8281 33.6289C64.8281 32.0469 64.3008 30.752 63.2461 29.7441C62.0508 28.6074 60.3867 28.0273 58.2539 28.0039C56.8477 28.0039 55.9102 28.2148 55.4414 28.6367C54.9727 29.0352 54.7266 29.791 54.7031 30.9043V48.8516C54.7031 49.7773 54.9609 50.3633 55.4766 50.6094C55.6406 50.6797 55.8574 50.7441 56.127 50.8027C56.3965 50.8613 56.6543 50.9258 56.9004 50.9961C57.1582 51.0547 57.375 51.1309 57.5508 51.2246C57.9023 51.4121 58.0781 51.6641 58.0781 51.9805C58.0781 52.5195 57.9844 52.9062 57.7969 53.1406ZM94.1309 45.1777C94.4473 44.9082 94.7812 44.7734 95.1328 44.7734C95.6719 44.7734 95.9824 44.8496 96.0645 45.002C96.5215 45.916 96.75 47.4277 96.75 49.5371C96.75 51.002 96.5859 52.0625 96.2578 52.7188C96.1523 52.9062 96.041 53 95.9238 53H76.5176C75.123 53 74.4258 52.584 74.4258 51.752C74.4258 51.3066 74.5195 50.9668 74.707 50.7324C75.1055 50.8496 75.4922 50.9082 75.8672 50.9082C76.2422 50.9082 76.5645 50.8789 76.834 50.8203C77.1035 50.7617 77.3555 50.6387 77.5898 50.4512C78.1523 50.0176 78.4336 49.2852 78.4336 48.2539V30.4473C78.4336 29.4277 78.0234 28.7773 77.2031 28.4961C76.9688 28.4141 76.7227 28.3438 76.4648 28.2852C76.2188 28.2148 75.9785 28.1504 75.7441 28.0918C75.5215 28.0215 75.3223 27.9453 75.1465 27.8633C74.748 27.6523 74.5488 27.3652 74.5488 27.002C74.5488 26.5215 74.6426 26.1758 74.8301 25.9648C75.041 26.0234 75.252 26.0527 75.4629 26.0527H93.4453C94.5234 26.0527 95.1973 26.1523 95.4668 26.3516C95.959 26.7031 96.2051 27.4766 96.2051 28.6719C96.2051 29.8203 96.1055 30.7578 95.9062 31.4844C95.7188 32.2109 95.584 32.6445 95.502 32.7852C95.3848 32.9961 95.1562 33.1016 94.8164 33.1016C94.3242 33.1016 93.9844 33.043 93.7969 32.9258C93.6211 32.7969 93.5273 32.7031 93.5156 32.6445C93.3633 30.9688 93.0996 29.9023 92.7246 29.4453C92.3496 28.9766 91.9043 28.6602 91.3887 28.4961C90.8848 28.3203 90.2227 28.2324 89.4023 28.2324H85.4824C84.2402 28.2324 83.4785 28.3555 83.1973 28.6016C82.9277 28.8477 82.7578 29.1348 82.6875 29.4629C82.6172 29.7793 82.582 30.1895 82.582 30.6934V38.1816L83.6191 38.1992C86.209 38.1992 88.6113 37.9707 90.8262 37.5137C90.9902 37.5957 91.1367 37.8301 91.2656 38.2168C91.3945 38.5918 91.459 38.9668 91.459 39.3418C91.459 39.9746 91.3535 40.5254 91.1426 40.9941C90.3691 41.0645 89.4785 41.0996 88.4707 41.0996C87.4629 41.0996 85.5 40.9355 82.582 40.6074V48.5352C82.582 49.4141 82.8164 50.0059 83.2852 50.3105C83.6836 50.5684 84.3984 50.6973 85.4297 50.6973L88.084 50.627C90.6504 50.5332 92.3203 50.1758 93.0938 49.5547C93.5273 49.2031 93.8145 48.7402 93.9551 48.166C94.0957 47.5918 94.166 47.0176 94.166 46.4434C94.166 45.8574 94.1543 45.4355 94.1309 45.1777ZM116.895 50.9258C117.387 51.0078 117.756 51.0488 118.002 51.0488C118.248 51.0488 118.488 51.0254 118.723 50.9785C118.969 50.9199 119.186 50.832 119.373 50.7148C119.795 50.457 120.006 50.0527 120.006 49.502C120.006 49.0449 119.865 48.5352 119.584 47.9727L117.932 43.877H106.805L104.836 48.8691C104.648 49.3262 104.555 49.6602 104.555 49.8711C104.555 50.0703 104.584 50.2227 104.643 50.3281C104.713 50.4219 104.812 50.5039 104.941 50.5742C105.082 50.6445 105.252 50.7031 105.451 50.75L106.172 50.9434C106.945 51.0723 107.443 51.1895 107.666 51.2949C108.123 51.5176 108.352 51.8457 108.352 52.2793C108.352 52.5957 108.264 52.8652 108.088 53.0879C107.865 53.0293 107.66 53 107.473 53H100.318C98.7598 53 97.9805 52.5723 97.9805 51.7168C97.9805 51.3184 98.0684 50.9961 98.2441 50.75C98.6777 50.8672 99.041 50.9258 99.334 50.9258C99.6387 50.9258 99.8906 50.8789 100.09 50.7852C100.301 50.6914 100.5 50.5332 100.688 50.3105C101.004 49.9238 101.373 49.1504 101.795 47.9902L110.479 26.9668C110.725 26.4043 111.422 26.0176 112.57 25.8066C112.887 25.748 113.221 25.7188 113.572 25.7188C114.287 25.7188 114.727 25.9121 114.891 26.2988L116.648 30.6934C120.035 38.6855 121.992 43.3496 122.52 44.6855L124.102 48.834C124.418 49.7363 124.682 50.293 124.893 50.5039C125.104 50.7148 125.332 50.8613 125.578 50.9434C125.824 51.0254 126.076 51.0957 126.334 51.1543C126.604 51.2012 126.838 51.2656 127.037 51.3477C127.482 51.5469 127.705 51.8516 127.705 52.2617C127.705 52.5781 127.617 52.8477 127.441 53.0703C127.219 53.0117 127.02 52.9824 126.844 52.9824H118.459C117.861 52.9824 117.393 52.9121 117.053 52.7715C116.725 52.6191 116.561 52.3906 116.561 52.0859C116.561 51.5586 116.672 51.1719 116.895 50.9258ZM116.912 41.3809L112.307 29.9902L107.789 41.3809H116.912ZM140.396 53.1758L135.387 52.9824H130.852C130.242 52.9824 129.732 52.8828 129.322 52.6836C128.912 52.4727 128.707 52.2148 128.707 51.9102C128.707 51.3477 128.795 50.9551 128.971 50.7324C129.393 50.8496 129.82 50.9082 130.254 50.9082C130.688 50.9082 131.051 50.8789 131.344 50.8203C131.648 50.7617 131.918 50.6387 132.152 50.4512C132.691 50.0293 132.961 49.2969 132.961 48.2539V30.3418C132.961 29.252 132.281 28.5723 130.922 28.3027C130.078 28.127 129.527 27.9395 129.27 27.7402C129.023 27.5293 128.9 27.3008 128.9 27.0547C128.9 26.5156 128.994 26.1523 129.182 25.9648C129.393 26.0234 129.586 26.0527 129.762 26.0527C129.762 26.0527 131.537 26.0527 135.088 26.0527C135.357 26.0527 135.715 26.041 136.16 26.0176C136.16 26.0176 136.658 25.9883 137.654 25.9297C139.119 25.8594 140.619 25.8242 142.154 25.8242C143.701 25.8242 145.201 26.0117 146.654 26.3867C148.107 26.75 149.361 27.248 150.416 27.8809C151.482 28.5137 152.367 29.252 153.07 30.0957C153.785 30.9277 154.359 31.8125 154.793 32.75C155.566 34.4727 155.953 36.4062 155.953 38.5508C155.953 42.4414 154.945 45.6758 152.93 48.2539C151.348 50.2812 149.021 51.7109 145.951 52.543C144.357 52.9648 142.506 53.1758 140.396 53.1758ZM137.109 48.7637C137.109 49.6426 137.385 50.2109 137.936 50.4688C138.404 50.6797 139.523 50.7852 141.293 50.7852C143.074 50.7852 144.656 50.4922 146.039 49.9062C147.422 49.3203 148.523 48.5293 149.344 47.5332C150.82 45.7402 151.559 43.2148 151.559 39.957C151.559 34.3672 149.584 30.7168 145.635 29.0059C144.205 28.3848 142.441 28.0742 140.344 28.0742C138.949 28.0742 138.1 28.2148 137.795 28.4961C137.49 28.7656 137.297 29.1055 137.215 29.5156C137.145 29.9141 137.109 30.4531 137.109 31.1328V48.7637ZM173.83 53C172.26 53 171.475 52.5664 171.475 51.6992C171.475 51.3125 171.568 51.002 171.756 50.7676C172.096 50.8613 172.441 50.9082 172.793 50.9082C173.145 50.9082 173.443 50.8965 173.689 50.873C173.936 50.8496 174.164 50.75 174.375 50.5742C174.809 50.1758 175.078 49.291 175.184 47.9199L176.994 29.252C177.018 28.959 176.918 28.7305 176.695 28.5664C176.473 28.4023 176.197 28.2852 175.869 28.2148C175.541 28.1445 175.254 28.0859 175.008 28.0391C174.773 27.9922 174.568 27.9219 174.393 27.8281C174.029 27.6523 173.848 27.3535 173.848 26.9316C173.848 26.498 173.93 26.1758 174.094 25.9648C174.316 26.0234 174.516 26.0527 174.691 26.0527H179.895C181.641 26.0527 182.713 26.4805 183.111 27.3359L189.65 42.6816L196.4 27.248C196.623 26.7324 196.957 26.4043 197.402 26.2637C197.848 26.123 198.416 26.0527 199.107 26.0527H202.518C204.1 26.0527 204.891 26.4688 204.891 27.3008C204.891 27.7461 204.803 28.0684 204.627 28.2676C204.158 28.1387 203.771 28.0742 203.467 28.0742C203.174 28.0742 202.91 28.0977 202.676 28.1445C202.441 28.1914 202.254 28.2793 202.113 28.4082C201.82 28.6543 201.709 29.1465 201.779 29.8848L203.678 49.1152C203.76 49.9355 204.199 50.4512 204.996 50.6621C205.219 50.7207 205.453 50.791 205.699 50.873L206.385 51.1016C206.818 51.2422 207.082 51.4297 207.176 51.6641C207.27 51.8867 207.316 52.1035 207.316 52.3145C207.316 52.6074 207.229 52.8652 207.053 53.0879C206.783 53.0293 206.508 53 206.227 53H198.211C196.781 53 196.066 52.5723 196.066 51.7168C196.066 51.5762 196.107 51.4004 196.189 51.1895C196.271 50.9668 196.336 50.8262 196.383 50.7676C196.734 50.8613 197.057 50.9082 197.35 50.9082C197.654 50.9082 197.965 50.8848 198.281 50.8379C198.609 50.791 198.885 50.6797 199.107 50.5039C199.588 50.1055 199.793 49.3496 199.723 48.2363L198.58 33.1543L198.422 30.2188L190.336 48.1309C190.184 48.2246 189.949 48.2715 189.633 48.2715C189.316 48.2715 188.988 48.1602 188.648 47.9375C188.32 47.7031 188.021 47.416 187.752 47.0762C187.318 46.5254 186.902 45.8223 186.504 44.9668L179.965 29.6387L178.541 48.7812C178.494 49.4492 178.588 49.9004 178.822 50.1348C179.115 50.4277 179.502 50.6387 179.982 50.7676C180.463 50.8965 180.838 50.9961 181.107 51.0664C181.377 51.125 181.611 51.207 181.811 51.3125C182.244 51.5234 182.461 51.875 182.461 52.3672C182.461 52.6133 182.367 52.8535 182.18 53.0879C181.969 53.0293 181.77 53 181.582 53H173.83ZM229.166 45.1777C229.482 44.9082 229.816 44.7734 230.168 44.7734C230.707 44.7734 231.018 44.8496 231.1 45.002C231.557 45.916 231.785 47.4277 231.785 49.5371C231.785 51.002 231.621 52.0625 231.293 52.7188C231.188 52.9062 231.076 53 230.959 53H211.553C210.158 53 209.461 52.584 209.461 51.752C209.461 51.3066 209.555 50.9668 209.742 50.7324C210.141 50.8496 210.527 50.9082 210.902 50.9082C211.277 50.9082 211.6 50.8789 211.869 50.8203C212.139 50.7617 212.391 50.6387 212.625 50.4512C213.188 50.0176 213.469 49.2852 213.469 48.2539V30.4473C213.469 29.4277 213.059 28.7773 212.238 28.4961C212.004 28.4141 211.758 28.3438 211.5 28.2852C211.254 28.2148 211.014 28.1504 210.779 28.0918C210.557 28.0215 210.357 27.9453 210.182 27.8633C209.783 27.6523 209.584 27.3652 209.584 27.002C209.584 26.5215 209.678 26.1758 209.865 25.9648C210.076 26.0234 210.287 26.0527 210.498 26.0527H228.48C229.559 26.0527 230.232 26.1523 230.502 26.3516C230.994 26.7031 231.24 27.4766 231.24 28.6719C231.24 29.8203 231.141 30.7578 230.941 31.4844C230.754 32.2109 230.619 32.6445 230.537 32.7852C230.42 32.9961 230.191 33.1016 229.852 33.1016C229.359 33.1016 229.02 33.043 228.832 32.9258C228.656 32.7969 228.562 32.7031 228.551 32.6445C228.398 30.9688 228.135 29.9023 227.76 29.4453C227.385 28.9766 226.939 28.6602 226.424 28.4961C225.92 28.3203 225.258 28.2324 224.438 28.2324H220.518C219.275 28.2324 218.514 28.3555 218.232 28.6016C217.963 28.8477 217.793 29.1348 217.723 29.4629C217.652 29.7793 217.617 30.1895 217.617 30.6934V38.1816L218.654 38.1992C221.244 38.1992 223.646 37.9707 225.861 37.5137C226.025 37.5957 226.172 37.8301 226.301 38.2168C226.43 38.5918 226.494 38.9668 226.494 39.3418C226.494 39.9746 226.389 40.5254 226.178 40.9941C225.404 41.0645 224.514 41.0996 223.506 41.0996C222.498 41.0996 220.535 40.9355 217.617 40.6074V48.5352C217.617 49.4141 217.852 50.0059 218.32 50.3105C218.719 50.5684 219.434 50.6973 220.465 50.6973L223.119 50.627C225.686 50.5332 227.355 50.1758 228.129 49.5547C228.562 49.2031 228.85 48.7402 228.99 48.166C229.131 47.5918 229.201 47.0176 229.201 46.4434C229.201 45.8574 229.189 45.4355 229.166 45.1777Z" fill="#FF9900"/>
</svg>
