<svg width="487" height="217" viewBox="0 0 487 217" fill="none" xmlns="http://www.w3.org/2000/svg">
<path d="M127.951 211.514H192.886V66.9542L202.388 105.08H248.318L245.181 84.3157C242.056 63.6305 233.158 44.247 219.508 28.394C213.521 21.441 205.53 16.5106 196.63 14.2789L161.675 5.5137C160.369 5.18617 158.985 5.41803 157.857 6.15348C139.61 18.0499 116.126 18.3094 97.621 6.81901L96.4907 6.11723C95.3407 5.40312 93.9502 5.18588 92.6371 5.51514L57.6878 14.2789C48.7881 16.5106 40.7968 21.441 34.8101 28.394C21.1602 44.247 12.2612 63.6305 9.13658 84.3157L6 105.08H51.9295L61.4321 66.9542V211.514H127.951Z" stroke="black" stroke-width="10"/>
<path d="M259.904 165.396C258.032 165.396 256.292 165.072 254.684 164.424C253.076 163.752 251.66 162.828 250.436 161.652C249.236 160.476 248.3 159.096 247.628 157.512C246.956 155.928 246.62 154.224 246.62 152.4C246.62 150.552 246.956 148.848 247.628 147.288C248.3 145.704 249.236 144.324 250.436 143.148C251.66 141.972 253.076 141.06 254.684 140.412C256.292 139.74 258.032 139.404 259.904 139.404C261.248 139.404 262.556 139.608 263.828 140.016C265.124 140.4 266.312 140.964 267.392 141.708C268.496 142.428 269.408 143.292 270.128 144.3L265.952 148.26C265.136 147.132 264.224 146.292 263.216 145.74C262.208 145.188 261.104 144.912 259.904 144.912C258.92 144.912 258.008 145.104 257.168 145.488C256.352 145.848 255.632 146.376 255.008 147.072C254.384 147.744 253.892 148.536 253.532 149.448C253.196 150.336 253.028 151.32 253.028 152.4C253.028 153.48 253.196 154.476 253.532 155.388C253.892 156.276 254.384 157.068 255.008 157.764C255.632 158.436 256.352 158.964 257.168 159.348C258.008 159.708 258.92 159.888 259.904 159.888C261.104 159.888 262.208 159.612 263.216 159.06C264.224 158.484 265.136 157.644 265.952 156.54L270.128 160.5C269.408 161.484 268.496 162.348 267.392 163.092C266.312 163.836 265.124 164.412 263.828 164.82C262.556 165.204 261.248 165.396 259.904 165.396ZM278.722 165.288C277.474 165.288 276.358 165.048 275.374 164.568C274.414 164.088 273.658 163.428 273.106 162.588C272.578 161.748 272.314 160.776 272.314 159.672C272.314 158.52 272.602 157.548 273.178 156.756C273.754 155.94 274.582 155.328 275.662 154.92C276.742 154.488 278.038 154.272 279.55 154.272C280.222 154.272 280.906 154.344 281.602 154.488C282.298 154.608 283.054 154.824 283.87 155.136V153.624C283.87 152.712 283.57 152.04 282.97 151.608C282.37 151.152 281.446 150.924 280.198 150.924C279.502 150.924 278.722 151.032 277.858 151.248C277.018 151.44 276.058 151.764 274.978 152.22L272.962 148.152C275.962 146.808 278.806 146.136 281.494 146.136C284.062 146.136 286.054 146.748 287.47 147.972C288.91 149.196 289.63 150.912 289.63 153.12V165H283.87V163.38C283.054 164.052 282.238 164.544 281.422 164.856C280.606 165.144 279.706 165.288 278.722 165.288ZM277.678 159.564C277.678 160.164 277.93 160.632 278.434 160.968C278.938 161.28 279.634 161.436 280.522 161.436C281.146 161.436 281.734 161.364 282.286 161.22C282.838 161.052 283.366 160.812 283.87 160.5V158.124C283.342 158.004 282.814 157.908 282.286 157.836C281.758 157.764 281.218 157.728 280.666 157.728C279.706 157.728 278.962 157.884 278.434 158.196C277.93 158.508 277.678 158.964 277.678 159.564ZM294.026 165V146.424H299.858V149.376C300.554 148.32 301.358 147.516 302.27 146.964C303.206 146.412 304.238 146.136 305.366 146.136C306.566 146.136 307.622 146.448 308.534 147.072C309.446 147.696 310.13 148.536 310.586 149.592C311.306 148.464 312.182 147.612 313.214 147.036C314.246 146.436 315.398 146.136 316.67 146.136C317.822 146.136 318.83 146.412 319.694 146.964C320.582 147.516 321.266 148.284 321.746 149.268C322.25 150.252 322.502 151.38 322.502 152.652V165H316.67V153.804C316.67 152.868 316.418 152.124 315.914 151.572C315.41 150.996 314.738 150.708 313.898 150.708C313.37 150.708 312.878 150.828 312.422 151.068C311.99 151.284 311.582 151.632 311.198 152.112C311.198 152.208 311.198 152.304 311.198 152.4C311.198 152.472 311.198 152.556 311.198 152.652V165H305.366V153.804C305.366 152.868 305.114 152.124 304.61 151.572C304.106 150.996 303.434 150.708 302.594 150.708C301.514 150.708 300.602 151.188 299.858 152.148V165H294.026ZM326.897 165V146.424H332.729V165H326.897ZM329.813 143.58C328.925 143.58 328.157 143.256 327.509 142.608C326.861 141.96 326.537 141.192 326.537 140.304C326.537 139.392 326.861 138.624 327.509 138C328.157 137.352 328.925 137.028 329.813 137.028C330.725 137.028 331.493 137.352 332.117 138C332.765 138.624 333.089 139.392 333.089 140.304C333.089 141.192 332.765 141.96 332.117 142.608C331.493 143.256 330.725 143.58 329.813 143.58ZM344.288 165.36C342.608 165.36 341.036 165.168 339.572 164.784C338.108 164.4 336.836 163.836 335.756 163.092L338.312 159.204C339.656 159.9 340.76 160.392 341.624 160.68C342.512 160.944 343.4 161.076 344.288 161.076C345.128 161.076 345.776 160.944 346.232 160.68C346.712 160.392 346.952 160.02 346.952 159.564C346.952 159.204 346.808 158.916 346.52 158.7C346.256 158.484 345.824 158.328 345.224 158.232L341.66 157.584C339.86 157.248 338.492 156.624 337.556 155.712C336.644 154.8 336.188 153.624 336.188 152.184C336.188 150.912 336.5 149.832 337.124 148.944C337.748 148.032 338.636 147.336 339.788 146.856C340.964 146.376 342.356 146.136 343.964 146.136C345.26 146.136 346.544 146.316 347.816 146.676C349.088 147.036 350.324 147.564 351.524 148.26L348.86 151.968C347.924 151.416 347.012 151.02 346.124 150.78C345.26 150.516 344.396 150.384 343.532 150.384C342.836 150.384 342.284 150.492 341.876 150.708C341.492 150.924 341.3 151.236 341.3 151.644C341.3 152.028 341.432 152.316 341.696 152.508C341.984 152.7 342.488 152.856 343.208 152.976L346.7 153.624C348.548 153.96 349.94 154.584 350.876 155.496C351.812 156.408 352.28 157.572 352.28 158.988C352.28 160.188 351.932 161.28 351.236 162.264C350.54 163.224 349.592 163.98 348.392 164.532C347.192 165.084 345.824 165.36 344.288 165.36ZM364.795 165.36C362.971 165.36 361.315 164.94 359.827 164.1C358.363 163.236 357.187 162.084 356.299 160.644C355.435 159.18 355.003 157.548 355.003 155.748C355.003 153.924 355.411 152.292 356.227 150.852C357.043 149.412 358.159 148.272 359.575 147.432C360.991 146.568 362.587 146.136 364.363 146.136C366.163 146.136 367.747 146.556 369.115 147.396C370.483 148.236 371.551 149.4 372.319 150.888C373.111 152.352 373.507 154.044 373.507 155.964V157.224H360.727C360.919 157.92 361.219 158.532 361.627 159.06C362.035 159.588 362.539 159.996 363.139 160.284C363.739 160.572 364.387 160.716 365.083 160.716C365.851 160.716 366.547 160.584 367.171 160.32C367.819 160.056 368.347 159.672 368.755 159.168L372.607 162.372C371.407 163.428 370.195 164.196 368.971 164.676C367.747 165.132 366.355 165.36 364.795 165.36ZM360.727 153.912H368.107C367.939 153.24 367.675 152.664 367.315 152.184C366.955 151.704 366.523 151.332 366.019 151.068C365.515 150.804 364.951 150.672 364.327 150.672C363.727 150.672 363.175 150.804 362.671 151.068C362.191 151.308 361.783 151.668 361.447 152.148C361.135 152.628 360.895 153.216 360.727 153.912ZM385.716 165.36C383.532 165.36 381.876 164.856 380.748 163.848C379.62 162.84 379.056 161.352 379.056 159.384V150.924H375.456V146.424H379.056V141.276L384.888 140.088V146.424H389.856V150.924H384.888V158.232C384.888 159.048 385.068 159.624 385.428 159.96C385.812 160.296 386.448 160.464 387.336 160.464C387.672 160.464 388.008 160.44 388.344 160.392C388.68 160.344 389.136 160.236 389.712 160.068V164.784C389.184 164.952 388.536 165.084 387.768 165.18C387 165.3 386.316 165.36 385.716 165.36ZM398.64 165.288C397.392 165.288 396.276 165.048 395.292 164.568C394.332 164.088 393.576 163.428 393.024 162.588C392.496 161.748 392.232 160.776 392.232 159.672C392.232 158.52 392.52 157.548 393.096 156.756C393.672 155.94 394.5 155.328 395.58 154.92C396.66 154.488 397.956 154.272 399.468 154.272C400.14 154.272 400.824 154.344 401.52 154.488C402.216 154.608 402.972 154.824 403.788 155.136V153.624C403.788 152.712 403.488 152.04 402.888 151.608C402.288 151.152 401.364 150.924 400.116 150.924C399.42 150.924 398.64 151.032 397.776 151.248C396.936 151.44 395.976 151.764 394.896 152.22L392.88 148.152C395.88 146.808 398.724 146.136 401.412 146.136C403.98 146.136 405.972 146.748 407.388 147.972C408.828 149.196 409.548 150.912 409.548 153.12V165H403.788V163.38C402.972 164.052 402.156 164.544 401.34 164.856C400.524 165.144 399.624 165.288 398.64 165.288ZM397.596 159.564C397.596 160.164 397.848 160.632 398.352 160.968C398.856 161.28 399.552 161.436 400.44 161.436C401.064 161.436 401.652 161.364 402.204 161.22C402.756 161.052 403.284 160.812 403.788 160.5V158.124C403.26 158.004 402.732 157.908 402.204 157.836C401.676 157.764 401.136 157.728 400.584 157.728C399.624 157.728 398.88 157.884 398.352 158.196C397.848 158.508 397.596 158.964 397.596 159.564ZM420.964 165.36C419.284 165.36 417.712 165.168 416.248 164.784C414.784 164.4 413.512 163.836 412.432 163.092L414.988 159.204C416.332 159.9 417.436 160.392 418.3 160.68C419.188 160.944 420.076 161.076 420.964 161.076C421.804 161.076 422.452 160.944 422.908 160.68C423.388 160.392 423.628 160.02 423.628 159.564C423.628 159.204 423.484 158.916 423.196 158.7C422.932 158.484 422.5 158.328 421.9 158.232L418.336 157.584C416.536 157.248 415.168 156.624 414.232 155.712C413.32 154.8 412.864 153.624 412.864 152.184C412.864 150.912 413.176 149.832 413.8 148.944C414.424 148.032 415.312 147.336 416.464 146.856C417.64 146.376 419.032 146.136 420.64 146.136C421.936 146.136 423.22 146.316 424.492 146.676C425.764 147.036 427 147.564 428.2 148.26L425.536 151.968C424.6 151.416 423.688 151.02 422.8 150.78C421.936 150.516 421.072 150.384 420.208 150.384C419.512 150.384 418.96 150.492 418.552 150.708C418.168 150.924 417.976 151.236 417.976 151.644C417.976 152.028 418.108 152.316 418.372 152.508C418.66 152.7 419.164 152.856 419.884 152.976L423.376 153.624C425.224 153.96 426.616 154.584 427.552 155.496C428.488 156.408 428.956 157.572 428.956 158.988C428.956 160.188 428.608 161.28 427.912 162.264C427.216 163.224 426.268 163.98 425.068 164.532C423.868 165.084 422.5 165.36 420.964 165.36ZM247.808 213V187.8H266.996V192.984H254V197.952H263.072V202.992H254V213H247.808ZM274.503 213.288C273.255 213.288 272.139 213.048 271.155 212.568C270.195 212.088 269.439 211.428 268.887 210.588C268.359 209.748 268.095 208.776 268.095 207.672C268.095 206.52 268.383 205.548 268.959 204.756C269.535 203.94 270.363 203.328 271.443 202.92C272.523 202.488 273.819 202.272 275.331 202.272C276.003 202.272 276.687 202.344 277.383 202.488C278.079 202.608 278.835 202.824 279.651 203.136V201.624C279.651 200.712 279.351 200.04 278.751 199.608C278.151 199.152 277.227 198.924 275.979 198.924C275.283 198.924 274.503 199.032 273.639 199.248C272.799 199.44 271.839 199.764 270.759 200.22L268.743 196.152C271.743 194.808 274.587 194.136 277.275 194.136C279.843 194.136 281.835 194.748 283.251 195.972C284.691 197.196 285.411 198.912 285.411 201.12V213H279.651V211.38C278.835 212.052 278.019 212.544 277.203 212.856C276.387 213.144 275.487 213.288 274.503 213.288ZM273.459 207.564C273.459 208.164 273.711 208.632 274.215 208.968C274.719 209.28 275.415 209.436 276.303 209.436C276.927 209.436 277.515 209.364 278.067 209.22C278.619 209.052 279.147 208.812 279.651 208.5V206.124C279.123 206.004 278.595 205.908 278.067 205.836C277.539 205.764 276.999 205.728 276.447 205.728C275.487 205.728 274.743 205.884 274.215 206.196C273.711 206.508 273.459 206.964 273.459 207.564ZM298.591 213.36C296.791 213.36 295.159 212.94 293.695 212.1C292.255 211.236 291.103 210.084 290.239 208.644C289.399 207.18 288.979 205.548 288.979 203.748C288.979 201.924 289.399 200.292 290.239 198.852C291.103 197.412 292.255 196.272 293.695 195.432C295.159 194.568 296.791 194.136 298.591 194.136C300.127 194.136 301.567 194.436 302.911 195.036C304.255 195.612 305.395 196.452 306.331 197.556L302.767 201.12C302.167 200.424 301.555 199.92 300.931 199.608C300.307 199.272 299.599 199.104 298.807 199.104C298.039 199.104 297.343 199.308 296.719 199.716C296.119 200.124 295.639 200.676 295.279 201.372C294.943 202.068 294.775 202.86 294.775 203.748C294.775 204.636 294.943 205.428 295.279 206.124C295.639 206.82 296.119 207.372 296.719 207.78C297.343 208.188 298.039 208.392 298.807 208.392C299.599 208.392 300.307 208.236 300.931 207.924C301.555 207.588 302.167 207.072 302.767 206.376L306.331 209.94C305.395 211.044 304.255 211.896 302.911 212.496C301.567 213.072 300.127 213.36 298.591 213.36ZM309.213 213V187.368L315.045 186.468V197.448C315.765 196.368 316.617 195.552 317.601 195C318.609 194.424 319.713 194.136 320.913 194.136C322.113 194.136 323.169 194.412 324.081 194.964C325.017 195.492 325.749 196.236 326.277 197.196C326.805 198.132 327.069 199.224 327.069 200.472V213H321.237V202.164C321.237 201.108 320.949 200.268 320.373 199.644C319.821 199.02 319.077 198.708 318.141 198.708C317.517 198.708 316.941 198.84 316.413 199.104C315.909 199.344 315.453 199.728 315.045 200.256V213H309.213ZM340.431 213.36C338.607 213.36 336.951 212.94 335.463 212.1C333.999 211.236 332.823 210.084 331.935 208.644C331.071 207.18 330.639 205.548 330.639 203.748C330.639 201.924 331.047 200.292 331.863 198.852C332.679 197.412 333.795 196.272 335.211 195.432C336.627 194.568 338.223 194.136 339.999 194.136C341.799 194.136 343.383 194.556 344.751 195.396C346.119 196.236 347.187 197.4 347.955 198.888C348.747 200.352 349.143 202.044 349.143 203.964V205.224H336.363C336.555 205.92 336.855 206.532 337.263 207.06C337.671 207.588 338.175 207.996 338.775 208.284C339.375 208.572 340.023 208.716 340.719 208.716C341.487 208.716 342.183 208.584 342.807 208.32C343.455 208.056 343.983 207.672 344.391 207.168L348.243 210.372C347.043 211.428 345.831 212.196 344.607 212.676C343.383 213.132 341.991 213.36 340.431 213.36ZM336.363 201.912H343.743C343.575 201.24 343.311 200.664 342.951 200.184C342.591 199.704 342.159 199.332 341.655 199.068C341.151 198.804 340.587 198.672 339.963 198.672C339.363 198.672 338.811 198.804 338.307 199.068C337.827 199.308 337.419 199.668 337.083 200.148C336.771 200.628 336.531 201.216 336.363 201.912ZM352.772 213V194.424H358.604V198.636C359.204 197.076 359.912 195.924 360.728 195.18C361.568 194.436 362.54 194.064 363.644 194.064C364.052 194.088 364.388 194.124 364.652 194.172C364.916 194.22 365.228 194.34 365.588 194.532V199.536C365.228 199.344 364.808 199.2 364.328 199.104C363.848 199.008 363.356 198.96 362.852 198.96C361.988 198.96 361.184 199.176 360.44 199.608C359.696 200.016 359.084 200.568 358.604 201.264V213H352.772ZM373.855 213.288C372.607 213.288 371.491 213.048 370.507 212.568C369.547 212.088 368.791 211.428 368.239 210.588C367.711 209.748 367.447 208.776 367.447 207.672C367.447 206.52 367.735 205.548 368.311 204.756C368.887 203.94 369.715 203.328 370.795 202.92C371.875 202.488 373.171 202.272 374.683 202.272C375.355 202.272 376.039 202.344 376.735 202.488C377.431 202.608 378.187 202.824 379.003 203.136V201.624C379.003 200.712 378.703 200.04 378.103 199.608C377.503 199.152 376.579 198.924 375.331 198.924C374.635 198.924 373.855 199.032 372.991 199.248C372.151 199.44 371.191 199.764 370.111 200.22L368.095 196.152C371.095 194.808 373.939 194.136 376.627 194.136C379.195 194.136 381.187 194.748 382.603 195.972C384.043 197.196 384.763 198.912 384.763 201.12V213H379.003V211.38C378.187 212.052 377.371 212.544 376.555 212.856C375.739 213.144 374.839 213.288 373.855 213.288ZM372.811 207.564C372.811 208.164 373.063 208.632 373.567 208.968C374.071 209.28 374.767 209.436 375.655 209.436C376.279 209.436 376.867 209.364 377.419 209.22C377.971 209.052 378.499 208.812 379.003 208.5V206.124C378.475 206.004 377.947 205.908 377.419 205.836C376.891 205.764 376.351 205.728 375.799 205.728C374.839 205.728 374.095 205.884 373.567 206.196C373.063 206.508 372.811 206.964 372.811 207.564ZM396.179 213.36C394.499 213.36 392.927 213.168 391.463 212.784C389.999 212.4 388.727 211.836 387.647 211.092L390.203 207.204C391.547 207.9 392.651 208.392 393.515 208.68C394.403 208.944 395.291 209.076 396.179 209.076C397.019 209.076 397.667 208.944 398.123 208.68C398.603 208.392 398.843 208.02 398.843 207.564C398.843 207.204 398.699 206.916 398.411 206.7C398.147 206.484 397.715 206.328 397.115 206.232L393.551 205.584C391.751 205.248 390.383 204.624 389.447 203.712C388.535 202.8 388.079 201.624 388.079 200.184C388.079 198.912 388.391 197.832 389.015 196.944C389.639 196.032 390.527 195.336 391.679 194.856C392.855 194.376 394.247 194.136 395.855 194.136C397.151 194.136 398.435 194.316 399.707 194.676C400.979 195.036 402.215 195.564 403.415 196.26L400.751 199.968C399.815 199.416 398.903 199.02 398.015 198.78C397.151 198.516 396.287 198.384 395.423 198.384C394.727 198.384 394.175 198.492 393.767 198.708C393.383 198.924 393.191 199.236 393.191 199.644C393.191 200.028 393.323 200.316 393.587 200.508C393.875 200.7 394.379 200.856 395.099 200.976L398.591 201.624C400.439 201.96 401.831 202.584 402.767 203.496C403.703 204.408 404.171 205.572 404.171 206.988C404.171 208.188 403.823 209.28 403.127 210.264C402.431 211.224 401.483 211.98 400.283 212.532C399.083 213.084 397.715 213.36 396.179 213.36Z" fill="black"/>
<path d="M223.465 125.249V212.821" stroke="black" stroke-width="7"/>
</svg>
