<svg width="136" height="81" viewBox="0 0 136 81" fill="none" xmlns="http://www.w3.org/2000/svg">
<path d="M41.2549 80H62.1569V24.7L65.2157 39.2846H80L78.8108 29.9291C77.9186 22.9097 75.2751 16.2276 71.1236 10.4976C68.9453 7.49107 65.8362 5.28685 62.2781 4.22652L52.1346 1.20372C51.7055 1.07585 51.241 1.16266 50.8871 1.4369C45.1886 5.85216 37.2508 5.94532 31.4502 1.66501L31.125 1.42504C30.7623 1.1574 30.295 1.07571 29.863 1.20444L19.7219 4.22652C16.1638 5.28685 13.0547 7.49107 10.8764 10.4976C6.72488 16.2276 4.08139 22.9097 3.18917 29.9291L2 39.2846H16.7843L19.8431 24.7V80H41.2549Z" stroke="black" stroke-width="2"/>
<path d="M83.944 60.132C83.344 60.132 82.784 60.024 82.264 59.808C81.752 59.584 81.3 59.276 80.908 58.884C80.516 58.484 80.212 58.024 79.996 57.504C79.78 56.976 79.672 56.408 79.672 55.8C79.672 55.192 79.78 54.628 79.996 54.108C80.212 53.58 80.516 53.12 80.908 52.728C81.3 52.328 81.752 52.02 82.264 51.804C82.784 51.58 83.344 51.468 83.944 51.468C84.36 51.468 84.756 51.524 85.132 51.636C85.516 51.74 85.876 51.896 86.212 52.104C86.548 52.304 86.848 52.552 87.112 52.848L86.5 53.484C86.188 53.108 85.804 52.82 85.348 52.62C84.9 52.412 84.432 52.308 83.944 52.308C83.472 52.308 83.032 52.396 82.624 52.572C82.216 52.748 81.86 52.996 81.556 53.316C81.26 53.636 81.028 54.008 80.86 54.432C80.692 54.848 80.608 55.304 80.608 55.8C80.608 56.288 80.692 56.744 80.86 57.168C81.028 57.592 81.26 57.964 81.556 58.284C81.86 58.604 82.216 58.852 82.624 59.028C83.032 59.204 83.472 59.292 83.944 59.292C84.432 59.292 84.9 59.188 85.348 58.98C85.804 58.772 86.188 58.484 86.5 58.116L87.112 58.752C86.848 59.048 86.548 59.3 86.212 59.508C85.876 59.708 85.516 59.864 85.132 59.976C84.756 60.08 84.36 60.132 83.944 60.132ZM90.419 60.108C90.003 60.108 89.635 60.032 89.315 59.88C88.995 59.728 88.743 59.52 88.559 59.256C88.383 58.984 88.295 58.672 88.295 58.32C88.295 57.968 88.387 57.664 88.571 57.408C88.755 57.144 89.011 56.94 89.339 56.796C89.667 56.652 90.051 56.58 90.491 56.58C90.827 56.58 91.143 56.616 91.439 56.688C91.743 56.76 92.023 56.876 92.279 57.036V56.232C92.279 55.752 92.151 55.392 91.895 55.152C91.639 54.904 91.263 54.78 90.767 54.78C90.495 54.78 90.215 54.82 89.927 54.9C89.647 54.98 89.335 55.108 88.991 55.284L88.667 54.612C89.451 54.236 90.187 54.048 90.875 54.048C91.603 54.048 92.163 54.228 92.555 54.588C92.947 54.94 93.143 55.448 93.143 56.112V60H92.279V59.316C92.023 59.58 91.739 59.78 91.427 59.916C91.115 60.044 90.779 60.108 90.419 60.108ZM89.135 58.296C89.135 58.64 89.267 58.916 89.531 59.124C89.803 59.332 90.159 59.436 90.599 59.436C90.927 59.436 91.227 59.38 91.499 59.268C91.779 59.156 92.039 58.988 92.279 58.764V57.636C92.031 57.492 91.775 57.388 91.511 57.324C91.247 57.252 90.951 57.216 90.623 57.216C90.175 57.216 89.815 57.316 89.543 57.516C89.271 57.708 89.135 57.968 89.135 58.296ZM94.9234 60V54.144H95.7994V55.056C96.0234 54.72 96.2794 54.468 96.5674 54.3C96.8554 54.132 97.1794 54.048 97.5394 54.048C97.9554 54.048 98.3194 54.152 98.6314 54.36C98.9434 54.56 99.1794 54.836 99.3394 55.188C99.5714 54.812 99.8474 54.528 100.167 54.336C100.495 54.144 100.871 54.048 101.295 54.048C101.687 54.048 102.031 54.14 102.327 54.324C102.631 54.508 102.867 54.764 103.035 55.092C103.203 55.412 103.287 55.788 103.287 56.22V60H102.411V56.436C102.411 55.924 102.283 55.52 102.027 55.224C101.771 54.928 101.419 54.78 100.971 54.78C100.667 54.78 100.391 54.856 100.143 55.008C99.9034 55.16 99.6914 55.392 99.5074 55.704C99.5234 55.784 99.5354 55.868 99.5434 55.956C99.5514 56.044 99.5554 56.132 99.5554 56.22V60H98.6794V56.436C98.6794 55.924 98.5474 55.52 98.2834 55.224C98.0274 54.928 97.6754 54.78 97.2274 54.78C96.6274 54.78 96.1514 55.068 95.7994 55.644V60H94.9234ZM105.048 60V54.144H105.924V60H105.048ZM105.492 52.692C105.316 52.692 105.164 52.632 105.036 52.512C104.916 52.384 104.856 52.236 104.856 52.068C104.856 51.9 104.916 51.756 105.036 51.636C105.164 51.508 105.316 51.444 105.492 51.444C105.668 51.444 105.816 51.508 105.936 51.636C106.064 51.756 106.128 51.9 106.128 52.068C106.128 52.236 106.064 52.384 105.936 52.512C105.816 52.632 105.668 52.692 105.492 52.692ZM109.532 60.12C109.052 60.12 108.608 60.048 108.2 59.904C107.792 59.752 107.444 59.536 107.156 59.256L107.624 58.68C107.976 58.936 108.3 59.124 108.596 59.244C108.892 59.356 109.196 59.412 109.508 59.412C109.932 59.412 110.284 59.312 110.564 59.112C110.844 58.912 110.984 58.656 110.984 58.344C110.984 58.104 110.9 57.916 110.732 57.78C110.572 57.644 110.304 57.54 109.928 57.468L108.968 57.3C108.4 57.196 107.98 57.02 107.708 56.772C107.444 56.524 107.312 56.188 107.312 55.764C107.312 55.428 107.4 55.132 107.576 54.876C107.76 54.62 108.012 54.42 108.332 54.276C108.652 54.124 109.016 54.048 109.424 54.048C109.824 54.048 110.204 54.108 110.564 54.228C110.924 54.34 111.288 54.524 111.656 54.78L111.224 55.392C110.92 55.176 110.616 55.02 110.312 54.924C110.008 54.82 109.7 54.768 109.388 54.768C109.004 54.768 108.696 54.852 108.464 55.02C108.232 55.188 108.116 55.416 108.116 55.704C108.116 55.944 108.188 56.128 108.332 56.256C108.484 56.384 108.748 56.48 109.124 56.544L110.108 56.724C110.7 56.828 111.132 57.008 111.404 57.264C111.676 57.52 111.812 57.864 111.812 58.296C111.812 58.64 111.712 58.952 111.512 59.232C111.312 59.504 111.04 59.72 110.696 59.88C110.352 60.04 109.964 60.12 109.532 60.12ZM115.845 60.12C115.301 60.12 114.809 59.988 114.369 59.724C113.929 59.452 113.581 59.088 113.325 58.632C113.069 58.168 112.941 57.648 112.941 57.072C112.941 56.496 113.061 55.98 113.301 55.524C113.549 55.068 113.881 54.708 114.297 54.444C114.713 54.18 115.177 54.048 115.689 54.048C116.209 54.048 116.669 54.18 117.069 54.444C117.477 54.7 117.797 55.052 118.029 55.5C118.269 55.94 118.389 56.44 118.389 57V57.264H113.793C113.825 57.664 113.933 58.024 114.117 58.344C114.309 58.656 114.557 58.904 114.861 59.088C115.173 59.264 115.513 59.352 115.881 59.352C116.185 59.352 116.477 59.3 116.757 59.196C117.045 59.084 117.289 58.936 117.489 58.752L118.041 59.34C117.705 59.604 117.357 59.8 116.997 59.928C116.637 60.056 116.253 60.12 115.845 60.12ZM113.817 56.64H117.525C117.485 56.288 117.377 55.976 117.201 55.704C117.033 55.424 116.817 55.204 116.553 55.044C116.297 54.884 116.009 54.804 115.689 54.804C115.369 54.804 115.077 54.884 114.813 55.044C114.549 55.196 114.329 55.412 114.153 55.692C113.985 55.964 113.873 56.28 113.817 56.64ZM121.941 60.12C121.437 60.12 121.053 60 120.789 59.76C120.533 59.512 120.405 59.156 120.405 58.692V54.864H119.193V54.144H120.405V52.536L121.281 52.332V54.144H122.961V54.864H121.281V58.464C121.281 58.776 121.345 59 121.473 59.136C121.609 59.272 121.829 59.34 122.133 59.34C122.285 59.34 122.421 59.328 122.541 59.304C122.661 59.28 122.801 59.24 122.961 59.184V59.964C122.801 60.02 122.633 60.06 122.457 60.084C122.281 60.108 122.109 60.12 121.941 60.12ZM126.056 60.108C125.64 60.108 125.272 60.032 124.952 59.88C124.632 59.728 124.38 59.52 124.196 59.256C124.02 58.984 123.932 58.672 123.932 58.32C123.932 57.968 124.024 57.664 124.208 57.408C124.392 57.144 124.648 56.94 124.976 56.796C125.304 56.652 125.688 56.58 126.128 56.58C126.464 56.58 126.78 56.616 127.076 56.688C127.38 56.76 127.66 56.876 127.916 57.036V56.232C127.916 55.752 127.788 55.392 127.532 55.152C127.276 54.904 126.9 54.78 126.404 54.78C126.132 54.78 125.852 54.82 125.564 54.9C125.284 54.98 124.972 55.108 124.628 55.284L124.304 54.612C125.088 54.236 125.824 54.048 126.512 54.048C127.24 54.048 127.8 54.228 128.192 54.588C128.584 54.94 128.78 55.448 128.78 56.112V60H127.916V59.316C127.66 59.58 127.376 59.78 127.064 59.916C126.752 60.044 126.416 60.108 126.056 60.108ZM124.772 58.296C124.772 58.64 124.904 58.916 125.168 59.124C125.44 59.332 125.796 59.436 126.236 59.436C126.564 59.436 126.864 59.38 127.136 59.268C127.416 59.156 127.676 58.988 127.916 58.764V57.636C127.668 57.492 127.412 57.388 127.148 57.324C126.884 57.252 126.588 57.216 126.26 57.216C125.812 57.216 125.452 57.316 125.18 57.516C124.908 57.708 124.772 57.968 124.772 58.296ZM132.372 60.12C131.892 60.12 131.448 60.048 131.04 59.904C130.632 59.752 130.284 59.536 129.996 59.256L130.464 58.68C130.816 58.936 131.14 59.124 131.436 59.244C131.732 59.356 132.036 59.412 132.348 59.412C132.772 59.412 133.124 59.312 133.404 59.112C133.684 58.912 133.824 58.656 133.824 58.344C133.824 58.104 133.74 57.916 133.572 57.78C133.412 57.644 133.144 57.54 132.768 57.468L131.808 57.3C131.24 57.196 130.82 57.02 130.548 56.772C130.284 56.524 130.152 56.188 130.152 55.764C130.152 55.428 130.24 55.132 130.416 54.876C130.6 54.62 130.852 54.42 131.172 54.276C131.492 54.124 131.856 54.048 132.264 54.048C132.664 54.048 133.044 54.108 133.404 54.228C133.764 54.34 134.128 54.524 134.496 54.78L134.064 55.392C133.76 55.176 133.456 55.02 133.152 54.924C132.848 54.82 132.54 54.768 132.228 54.768C131.844 54.768 131.536 54.852 131.304 55.02C131.072 55.188 130.956 55.416 130.956 55.704C130.956 55.944 131.028 56.128 131.172 56.256C131.324 56.384 131.588 56.48 131.964 56.544L132.948 56.724C133.54 56.828 133.972 57.008 134.244 57.264C134.516 57.52 134.652 57.864 134.652 58.296C134.652 58.64 134.552 58.952 134.352 59.232C134.152 59.504 133.88 59.72 133.536 59.88C133.192 60.04 132.804 60.12 132.372 60.12ZM80.068 76V67.6H85.804V68.416H80.992V71.416H84.28V72.22H80.992V76H80.068ZM88.2511 76.108C87.8351 76.108 87.4671 76.032 87.1471 75.88C86.8271 75.728 86.5751 75.52 86.3911 75.256C86.2151 74.984 86.1271 74.672 86.1271 74.32C86.1271 73.968 86.2191 73.664 86.4031 73.408C86.5871 73.144 86.8431 72.94 87.1711 72.796C87.4991 72.652 87.8831 72.58 88.3231 72.58C88.6591 72.58 88.9751 72.616 89.2711 72.688C89.5751 72.76 89.8551 72.876 90.1111 73.036V72.232C90.1111 71.752 89.9831 71.392 89.7271 71.152C89.4711 70.904 89.0951 70.78 88.5991 70.78C88.3271 70.78 88.0471 70.82 87.7591 70.9C87.4791 70.98 87.1671 71.108 86.8231 71.284L86.4991 70.612C87.2831 70.236 88.0191 70.048 88.7071 70.048C89.4351 70.048 89.9951 70.228 90.3871 70.588C90.7791 70.94 90.9751 71.448 90.9751 72.112V76H90.1111V75.316C89.8551 75.58 89.5711 75.78 89.2591 75.916C88.9471 76.044 88.6111 76.108 88.2511 76.108ZM86.9671 74.296C86.9671 74.64 87.0991 74.916 87.3631 75.124C87.6351 75.332 87.9911 75.436 88.4311 75.436C88.7591 75.436 89.0591 75.38 89.3311 75.268C89.6111 75.156 89.8711 74.988 90.1111 74.764V73.636C89.8631 73.492 89.6071 73.388 89.3431 73.324C89.0791 73.252 88.7831 73.216 88.4551 73.216C88.0071 73.216 87.6471 73.316 87.3751 73.516C87.1031 73.708 86.9671 73.968 86.9671 74.296ZM95.3835 76.096C94.8395 76.096 94.3475 75.964 93.9075 75.7C93.4755 75.428 93.1315 75.064 92.8755 74.608C92.6195 74.144 92.4915 73.632 92.4915 73.072C92.4915 72.504 92.6195 71.992 92.8755 71.536C93.1315 71.08 93.4755 70.72 93.9075 70.456C94.3475 70.184 94.8395 70.048 95.3835 70.048C95.8155 70.048 96.2275 70.128 96.6195 70.288C97.0115 70.448 97.3515 70.672 97.6395 70.96L97.0755 71.572C96.8675 71.34 96.6155 71.16 96.3195 71.032C96.0235 70.904 95.7235 70.84 95.4195 70.84C95.0355 70.84 94.6875 70.94 94.3755 71.14C94.0715 71.34 93.8275 71.608 93.6435 71.944C93.4595 72.28 93.3675 72.656 93.3675 73.072C93.3675 73.488 93.4595 73.864 93.6435 74.2C93.8275 74.536 94.0715 74.804 94.3755 75.004C94.6875 75.204 95.0355 75.304 95.4195 75.304C95.7235 75.304 96.0235 75.24 96.3195 75.112C96.6155 74.976 96.8675 74.796 97.0755 74.572L97.6395 75.184C97.3515 75.472 97.0115 75.696 96.6195 75.856C96.2275 76.016 95.8155 76.096 95.3835 76.096ZM98.8609 76V67.336L99.7369 67.156V71.092C99.9609 70.74 100.229 70.48 100.541 70.312C100.853 70.136 101.205 70.048 101.597 70.048C102.021 70.048 102.389 70.14 102.701 70.324C103.021 70.5 103.269 70.752 103.445 71.08C103.629 71.4 103.721 71.776 103.721 72.208V76H102.845V72.46C102.845 71.94 102.701 71.532 102.413 71.236C102.133 70.932 101.753 70.78 101.273 70.78C100.953 70.78 100.661 70.856 100.397 71.008C100.133 71.16 99.9129 71.384 99.7369 71.68V76H98.8609ZM108.122 76.12C107.578 76.12 107.086 75.988 106.646 75.724C106.206 75.452 105.858 75.088 105.602 74.632C105.346 74.168 105.218 73.648 105.218 73.072C105.218 72.496 105.338 71.98 105.578 71.524C105.826 71.068 106.158 70.708 106.574 70.444C106.99 70.18 107.454 70.048 107.966 70.048C108.486 70.048 108.946 70.18 109.346 70.444C109.754 70.7 110.074 71.052 110.306 71.5C110.546 71.94 110.666 72.44 110.666 73V73.264H106.07C106.102 73.664 106.21 74.024 106.394 74.344C106.586 74.656 106.834 74.904 107.138 75.088C107.45 75.264 107.79 75.352 108.158 75.352C108.462 75.352 108.754 75.3 109.034 75.196C109.322 75.084 109.566 74.936 109.766 74.752L110.318 75.34C109.982 75.604 109.634 75.8 109.274 75.928C108.914 76.056 108.53 76.12 108.122 76.12ZM106.094 72.64H109.802C109.762 72.288 109.654 71.976 109.478 71.704C109.31 71.424 109.094 71.204 108.83 71.044C108.574 70.884 108.286 70.804 107.966 70.804C107.646 70.804 107.354 70.884 107.09 71.044C106.826 71.196 106.606 71.412 106.43 71.692C106.262 71.964 106.15 72.28 106.094 72.64ZM112.162 76V70.144H113.038V71.344C113.19 70.936 113.406 70.62 113.686 70.396C113.974 70.164 114.302 70.048 114.67 70.048C114.774 70.048 114.87 70.056 114.958 70.072C115.046 70.08 115.134 70.1 115.222 70.132V70.924C115.126 70.892 115.022 70.868 114.91 70.852C114.806 70.828 114.706 70.816 114.61 70.816C114.25 70.816 113.934 70.92 113.662 71.128C113.398 71.336 113.19 71.628 113.038 72.004V76H112.162ZM117.946 76.108C117.53 76.108 117.162 76.032 116.842 75.88C116.522 75.728 116.27 75.52 116.086 75.256C115.91 74.984 115.822 74.672 115.822 74.32C115.822 73.968 115.914 73.664 116.098 73.408C116.282 73.144 116.538 72.94 116.866 72.796C117.194 72.652 117.578 72.58 118.018 72.58C118.354 72.58 118.67 72.616 118.966 72.688C119.27 72.76 119.55 72.876 119.806 73.036V72.232C119.806 71.752 119.678 71.392 119.422 71.152C119.166 70.904 118.79 70.78 118.294 70.78C118.022 70.78 117.742 70.82 117.454 70.9C117.174 70.98 116.862 71.108 116.518 71.284L116.194 70.612C116.978 70.236 117.714 70.048 118.402 70.048C119.13 70.048 119.69 70.228 120.082 70.588C120.474 70.94 120.67 71.448 120.67 72.112V76H119.806V75.316C119.55 75.58 119.266 75.78 118.954 75.916C118.642 76.044 118.306 76.108 117.946 76.108ZM116.662 74.296C116.662 74.64 116.794 74.916 117.058 75.124C117.33 75.332 117.686 75.436 118.126 75.436C118.454 75.436 118.754 75.38 119.026 75.268C119.306 75.156 119.566 74.988 119.806 74.764V73.636C119.558 73.492 119.302 73.388 119.038 73.324C118.774 73.252 118.478 73.216 118.15 73.216C117.702 73.216 117.342 73.316 117.07 73.516C116.798 73.708 116.662 73.968 116.662 74.296ZM124.263 76.12C123.783 76.12 123.339 76.048 122.931 75.904C122.523 75.752 122.175 75.536 121.887 75.256L122.355 74.68C122.707 74.936 123.031 75.124 123.327 75.244C123.623 75.356 123.927 75.412 124.239 75.412C124.663 75.412 125.015 75.312 125.295 75.112C125.575 74.912 125.715 74.656 125.715 74.344C125.715 74.104 125.631 73.916 125.463 73.78C125.303 73.644 125.035 73.54 124.659 73.468L123.699 73.3C123.131 73.196 122.711 73.02 122.439 72.772C122.175 72.524 122.043 72.188 122.043 71.764C122.043 71.428 122.131 71.132 122.307 70.876C122.491 70.62 122.743 70.42 123.063 70.276C123.383 70.124 123.747 70.048 124.155 70.048C124.555 70.048 124.935 70.108 125.295 70.228C125.655 70.34 126.019 70.524 126.387 70.78L125.955 71.392C125.651 71.176 125.347 71.02 125.043 70.924C124.739 70.82 124.431 70.768 124.119 70.768C123.735 70.768 123.427 70.852 123.195 71.02C122.963 71.188 122.847 71.416 122.847 71.704C122.847 71.944 122.919 72.128 123.063 72.256C123.215 72.384 123.479 72.48 123.855 72.544L124.839 72.724C125.431 72.828 125.863 73.008 126.135 73.264C126.407 73.52 126.543 73.864 126.543 74.296C126.543 74.64 126.443 74.952 126.243 75.232C126.043 75.504 125.771 75.72 125.427 75.88C125.083 76.04 124.695 76.12 124.263 76.12Z" fill="black"/>
<path d="M72 47V80.5" stroke="black"/>
</svg>
